<svg width="59" height="38" viewBox="0 0 59 38" fill="none" xmlns="http://www.w3.org/2000/svg">
<g clip-path="url(#clip0_41:3965)">
<path d="M-0.00799 18.0353C0.684653 19.8132 1.71071 21.4987 3.03586 23.0354C6.7312 27.3255 12.5252 30.1236 18.159 30.337C18.6636 30.356 19.1576 30.3666 19.6409 30.3666C28.2785 30.3666 33.3462 27.3805 37.8479 24.7303C40.9986 22.8727 43.722 21.2708 47.2331 20.9094C50.4559 20.567 52.8242 21.3596 54.7279 21.9957C56.4982 22.5874 57.932 23.1052 57.2271 24.3499C57.1897 24.4176 57.1817 24.4281 57.1604 24.4704C54.6769 28.5131 50.8148 31.9257 46.0102 34.3228C43.9573 35.1132 41.6376 35.36 39.3939 35.0265C35.6985 34.4982 30.1528 32.7357 26.5243 33.1118C21.6915 33.6127 20.9973 35.3182 18.0682 35.5845C17.3153 35.6521 16.3567 35.4217 15.4916 35.1301C11.4379 33.3991 7.9354 30.9601 5.24986 27.9981C2.56432 25.0362 0.766244 21.6291 -0.00799 18.0353V18.0353Z" fill="#BFC0C0"/>
<path d="M21.8864 35.538C23.3342 34.7957 24.9789 34.3278 26.6924 34.1706C28.9059 33.9424 32.2008 34.6546 35.1058 35.2844C36.5529 35.5971 37.92 35.893 39.1349 36.0747C39.8306 36.1798 40.5361 36.2391 41.2442 36.2523C34.602 38.3742 27.2267 38.5725 20.4178 36.8123C19.7824 36.5904 21.0186 35.9374 21.8864 35.538Z" fill="#BFC0C0"/>
<path fill-rule="evenodd" clip-rule="evenodd" d="M5.19295 0.0887582C3.58809 1.85927 2.30299 3.79826 1.37479 5.84973C-3.31648 19.0433 7.43045 28.0588 16.9118 29.1683C16.7996 31.3345 17.4752 33.7627 19.3682 34.1262C20.2974 34.2932 21.6992 32.4969 22.3961 31.5902C23.2534 30.586 24.2248 29.6459 25.2984 28.7816C30.2662 27.8509 33.7766 25.7839 37.0396 23.8625C40.2374 21.9796 43.1977 20.2365 47.0593 19.84C50.6448 19.4708 53.276 20.349 55.2098 20.9944C56.7508 21.5087 57.8488 21.8752 58.6339 21.3447C58.8878 21.0735 59.0169 20.7416 58.9997 20.4043C58.9196 18.1959 53.5047 12.7604 45.7643 11.7185C40.5854 10.9893 35.2528 11.4046 30.3528 12.9189C29.6105 13.1443 28.8834 13.3845 28.1714 13.6395C24.5348 10.2497 20.8795 8.47027 19.2774 8.28641C16.9616 8.01897 17.8146 9.83777 18.4485 11.1895C18.5009 11.3012 18.5518 11.4096 18.5992 11.5135C20.4549 15.5563 18.2949 17.2829 16.4499 18.0648C13.4808 18.8827 10.6292 19.0983 7.78557 17.9972C5.74832 17.2089 3.74044 15.1125 4.80846 13.2422C5.48666 12.0376 8.66668 11.9023 10.9709 13.0309C13.1924 14.1171 15.769 13.7938 15.8304 13.5C15.8818 13.2539 15.4225 13.0629 14.8833 12.8386C14.1909 12.5507 13.3668 12.2079 13.3232 11.6234C13.2552 10.9322 12.9226 10.2739 12.3697 9.73617C11.8168 9.19849 11.0699 8.80702 10.2287 8.61398C9.57759 8.4575 7.30535 8.22688 6.21978 8.7822C6.77456 8.48287 7.16275 8.02533 7.30229 7.50447C7.76354 5.81617 6.71679 4.77823 5.93295 4.001C5.60512 3.67593 5.32328 3.39646 5.21698 3.13408C5.04462 2.70863 5.2746 2.03236 5.48419 1.4161C5.71288 0.743635 5.91728 0.142619 5.54807 0.0169046C5.48686 -0.00225716 5.41957 -0.00562677 5.3558 0.00727664C5.29202 0.0201801 5.23503 0.0486971 5.19295 0.0887582ZM41.1042 19.0881C42.2976 18.6266 43.7807 18.053 43.8982 17.7394C44.2133 16.9067 41.9464 16.7884 40.1228 16.949C38.2431 17.1181 35.4502 18.4854 36.4435 19.933C37.1311 20.9349 38.607 20.2069 39.5758 19.729C39.6452 19.6947 39.712 19.6618 39.7757 19.6308C40.034 19.502 40.5363 19.3078 41.1042 19.0881Z" fill="white"/>
</g>
<defs>
<clipPath id="clip0_41:3965">
<rect width="59" height="38" fill="white" transform="matrix(-1 0 0 1 59 0)"/>
</clipPath>
</defs>
</svg>
