<svg width="71" height="39" viewBox="0 0 71 39" fill="none" xmlns="http://www.w3.org/2000/svg">
<g clip-path="url(#clip0_36:1840)">
<path d="M3.58225 9.12274C4.51488 9.77408 5.54189 10.2755 6.62669 10.6091C9.42729 11.4271 12.4133 11.3212 15.1498 10.3069C17.7325 9.61726 15.7657 5.28786 12.0845 6.46722C10.1615 7.07763 8.61969 5.23791 6.64209 4.1554C5.94523 3.76824 5.68714 5.19725 4.07992 4.17813C3.98987 4.1206 3.89682 4.06801 3.80116 4.0206C2.94558 3.60817 2.08158 3.73584 1.74327 3.5655C0.349789 2.81783 -1.86639 5.36425 3.58225 9.12274Z" fill="#F6B234"/>
<path d="M8.79354 10.6966C8.79354 10.6966 8.79005 10.3033 8.4268 10.2998C8.06354 10.2964 7.99757 10.3036 7.86438 10.1781C7.73118 10.0526 7.77039 10.0056 7.63112 9.94019C7.49186 9.87476 7.26639 9.77009 7.13586 9.94458C7.00533 10.1191 6.93935 10.1263 7.03988 10.2921C7.14041 10.4579 7.33876 10.4828 7.49123 10.5481C7.6019 10.6099 7.72334 10.6496 7.84888 10.665C7.96077 10.6675 8.07187 10.6845 8.17953 10.7154C8.29869 10.7476 8.8416 10.9028 8.79354 10.6966Z" fill="#D46A15"/>
<path d="M8.05325 9.88307C7.92435 9.77099 7.83495 9.61972 7.79848 9.45198C7.79653 9.23199 7.79528 9.09199 7.88018 8.98457C7.96508 8.87714 8.21696 8.98159 8.26407 9.08117C8.31119 9.18076 8.38749 9.59343 8.50695 9.65904C8.6264 9.72465 8.87043 9.68915 8.79892 9.81646C8.7274 9.94376 8.31481 10.3341 8.05325 9.88307Z" fill="#D46A15"/>
<path d="M7.44837 9.44179C7.44837 9.44179 7.4447 9.02847 7.17343 8.97087C7.01482 8.9332 6.84802 8.95606 6.70511 9.03504C6.70511 9.03504 6.32664 8.80505 6.30229 9.03861C6.27795 9.27217 6.25248 9.37906 6.30637 9.49858C6.36927 9.59741 6.45952 9.67543 6.56592 9.72297C6.68538 9.78858 6.86166 9.56033 6.99409 9.59916C7.12651 9.63798 7.18653 9.70412 7.26566 9.69009C7.34478 9.67605 7.46966 9.60828 7.44837 9.44179Z" fill="#D46A15"/>
<path d="M8.17733 8.23526C8.17733 8.23526 7.83024 8.56502 7.70311 8.37947C7.57599 8.19393 7.70087 8.12615 7.51366 7.8678C7.32646 7.60945 7.51024 7.48114 7.25104 7.29677C6.99185 7.11239 6.85688 6.78691 6.95528 6.7127C7.05369 6.63849 7.35532 6.39581 7.56699 6.43394C7.77865 6.47206 7.93832 6.60398 8.06337 6.5562C8.18843 6.50842 8.16071 6.362 8.23235 6.24803C8.24668 6.21998 8.26832 6.19642 8.29494 6.17988C8.32156 6.16334 8.35215 6.15445 8.38341 6.15417C8.41467 6.1539 8.44541 6.16225 8.47232 6.17831C8.49923 6.19437 8.52128 6.21755 8.53611 6.24533C8.60999 6.38468 8.85044 6.68923 8.67474 6.98413C8.56841 7.16688 8.4752 7.35708 8.39582 7.55329C8.43456 7.64602 8.46631 7.74157 8.49081 7.83913C8.50508 7.95901 8.17733 8.23526 8.17733 8.23526Z" fill="#D46A15"/>
<path d="M7.49399 8.62801C7.49399 8.62801 7.66439 8.47983 7.33821 8.18937C7.01204 7.89892 7.18248 7.75741 6.91769 7.68642C6.6529 7.61543 6.50097 7.61012 6.41778 7.91087C6.3346 8.21161 6.42215 8.40418 6.27069 8.45219C6.11922 8.5002 5.94989 8.76838 5.91705 8.78867C6.06203 8.72463 6.21492 8.68067 6.37157 8.65797C6.49704 8.65685 6.54904 8.56305 6.6823 8.69521C6.81555 8.82737 6.82215 8.82731 6.92715 8.75304C7.03216 8.67877 7.09737 8.58486 7.21706 8.67713C7.33675 8.76941 7.56145 8.78742 7.49399 8.62801Z" fill="#D46A15"/>
<path d="M6.90087 7.27321C6.78346 7.0771 6.68435 6.87041 6.60481 6.6558C6.53005 6.41646 6.80198 6.54739 6.76076 6.36775C6.71954 6.18811 6.67791 5.96179 6.40811 6.07086C6.13831 6.17992 5.9596 6.13484 5.88255 6.3822C5.8055 6.62956 5.67396 6.69073 5.66919 6.89745C5.66442 7.10417 5.86406 7.27573 5.74685 7.46344C5.62964 7.65116 5.60482 7.83138 5.75034 7.85676C5.89585 7.88214 6.23669 7.59244 6.28215 7.50537C6.3276 7.4183 6.28179 7.46537 6.49281 7.43016C6.70383 7.39496 6.94774 7.34613 6.90087 7.27321Z" fill="#D46A15"/>
<path d="M7.23468 6.19022C7.30076 6.21769 7.37162 6.23152 7.44307 6.23089C7.51452 6.23025 7.58513 6.21517 7.65071 6.18653C7.81491 6.08507 7.78938 6.18531 7.78713 5.93199C7.78488 5.67866 7.99154 5.89684 8.01601 5.67661C8.04047 5.45638 8.05939 5.35621 7.80787 5.29177C7.55635 5.22733 7.4636 5.19482 7.33242 5.29599C7.23123 5.36338 7.11667 5.40763 6.99676 5.42564C6.99676 5.42564 6.80897 5.10063 6.86404 5.35348C6.91912 5.60634 6.83057 6.04713 7.23468 6.19022Z" fill="#D46A15"/>
<path d="M5.97733 9.62148C5.97599 9.51487 5.93691 9.41225 5.86717 9.33217C5.79742 9.25209 5.7016 9.19982 5.59703 9.18484L4.93555 9.06403C4.69735 9.01281 4.62217 8.7268 4.50413 8.82118C4.3861 8.91557 4.31311 8.87621 4.38716 9.03556C4.4819 9.1946 4.624 9.31935 4.79317 9.39198C4.93063 9.48773 5.07739 9.56907 5.23119 9.63477C5.42334 9.7064 5.28508 9.75429 5.58973 9.8516C5.89438 9.9489 5.93613 10.1885 6.12085 10.1669C6.30557 10.1453 6.49826 10.2769 6.57602 10.1095C6.65379 9.94217 6.49613 10.0369 6.34354 9.95825C6.19095 9.8796 6.0245 9.72774 5.97733 9.62148Z" fill="#D46A15"/>
<path d="M5.66226 8.35758C5.66226 8.35758 5.50666 7.93895 5.28291 8.0276C5.05916 8.11626 4.95504 8.29053 4.87503 8.20457C4.79501 8.11861 4.69419 7.91949 4.78258 8.20539C4.87096 8.49128 4.91808 8.59087 5.01118 8.66338C5.10428 8.73589 5.2298 8.74144 5.30315 8.82079C5.3765 8.90014 5.35698 8.93365 5.54878 8.96528C5.74058 8.99692 5.85914 8.96254 5.84552 8.91599C5.8319 8.86944 5.61911 8.70465 5.54512 8.55197C5.47112 8.39929 5.66226 8.35758 5.66226 8.35758Z" fill="#D46A15"/>
<path d="M5.53423 7.32534C5.53423 7.32534 5.77455 6.86985 5.41766 6.83968C5.06077 6.80951 5.06036 6.76284 4.90919 6.84419C4.75802 6.92553 4.73001 6.74577 4.51097 6.62105C4.29193 6.49632 4.12767 6.59111 4.11594 6.75789C4.10421 6.92466 3.98594 6.99239 4.1196 7.17121C4.22535 7.32345 4.36145 7.45168 4.51918 7.54768C4.63482 7.63836 4.77195 7.69691 4.91693 7.71749C5.08202 7.71603 5.23473 7.80801 5.29994 7.7141C5.38751 7.59058 5.46582 7.46063 5.53423 7.32534V7.32534Z" fill="#D46A15"/>
<path d="M4.06981 8.25837C4.06981 8.25837 4.13023 7.62448 3.80707 7.67402C3.48392 7.72355 3.4249 7.77074 3.26618 7.74548C3.10746 7.72022 3.22697 7.79249 2.97415 7.58139C2.72132 7.3703 2.83906 7.24258 2.59431 7.19808C2.34957 7.15358 2.30204 7.00733 2.24433 7.20118C2.18661 7.39504 2.17441 7.50848 2.20784 7.55485C2.26492 7.66566 2.35006 7.75922 2.4546 7.82601C2.67399 7.99074 2.74621 7.94344 2.96543 8.08817C3.18465 8.23289 3.35021 8.28476 3.45015 8.38388C3.55009 8.48299 3.82826 8.57386 3.94135 8.66619C4.05444 8.75853 4.35006 8.58256 4.06981 8.25837Z" fill="#D46A15"/>
<path d="M3.36193 7.37126C3.36193 7.37126 3.72713 7.5947 3.77087 7.3143C3.81461 7.0339 3.76844 7.04098 3.70801 6.92817C3.64757 6.81537 3.74621 6.76784 3.79738 6.58071C3.84855 6.39358 3.90008 6.24645 3.6814 6.16172C3.46271 6.07699 3.50015 5.82998 3.23778 6.03231C2.97542 6.23465 2.96976 6.34137 2.81788 6.34271C2.666 6.34406 2.671 6.16401 2.53828 6.09186C2.40556 6.0197 2.35851 5.92677 2.2604 6.03431C2.16229 6.14185 2.03064 6.18969 2.19113 6.41494C2.35163 6.6402 2.39107 6.61985 2.46478 6.7392C2.53848 6.85855 2.68529 7.03059 2.79761 7.03626C2.90993 7.04193 2.87727 7.08222 2.99012 7.14789C3.10297 7.21356 3.29554 7.33185 3.36193 7.37126Z" fill="#D46A15"/>
<path d="M4.45099 5.81491C4.45099 5.81491 4.38791 6.14881 4.61338 6.25348C4.83884 6.35815 4.81808 6.25167 5.01678 6.31658C5.21548 6.38149 5.19656 6.48165 5.31548 6.48727C5.35115 6.48773 5.38653 6.48071 5.41937 6.46665C5.45222 6.45259 5.48181 6.43179 5.50627 6.40557C5.50627 6.40557 5.68167 6.07734 5.62742 5.91782C5.57317 5.75829 5.91478 5.55525 5.62393 5.5245C5.46857 5.49861 5.30996 5.50002 5.15508 5.52865C5.01641 5.52988 5.03799 5.7297 4.89825 5.61094C4.75852 5.49217 4.84413 5.46474 4.66506 5.37966C4.486 5.29458 4.46349 5.73479 4.45099 5.81491Z" fill="#D46A15"/>
<path d="M2.6874 5.77721C2.6874 5.77721 3.1375 5.89322 3.08237 5.6337C3.02723 5.37418 3.12016 5.42669 2.93431 5.32167C2.74847 5.21664 2.64758 5.01086 2.54794 4.94508C2.4483 4.87929 2.54711 4.85175 2.41368 4.69959C2.28025 4.54744 2.17395 4.47504 1.97566 4.4568C1.77738 4.43856 1.63811 4.37313 1.64679 4.60639C1.65546 4.83966 1.57533 4.74037 1.7429 5.01889C1.91047 5.29742 2.14867 5.34864 2.16312 5.48852C2.171 5.54892 2.1934 5.60646 2.22838 5.65613C2.26335 5.70579 2.30984 5.74606 2.36377 5.77341C2.47014 5.85247 2.6874 5.77721 2.6874 5.77721Z" fill="#D46A15"/>
<path d="M1.91068 6.81077C1.94833 6.77629 1.97721 6.73317 1.99488 6.68505C2.01256 6.63693 2.0185 6.58522 2.01223 6.53429C2.00595 6.48335 1.98762 6.43469 1.9588 6.3924C1.92998 6.35011 1.89151 6.31545 1.84664 6.29132C1.50767 6.04765 1.60512 5.86678 1.66302 5.69292C1.72091 5.51907 1.7537 5.49211 1.60801 5.44674L1.12447 5.28435L0.810792 4.91378C0.879017 4.74827 0.917697 4.57188 0.925044 4.39275C0.923684 4.23942 0.962182 4.11241 0.757414 4.10756C0.552646 4.10271 0.486669 4.10996 0.449235 4.35697C0.411802 4.60398 0.353553 4.73784 0.407741 4.8907C0.461929 5.04355 0.136642 4.85309 0.62331 5.3688C1.10998 5.8845 1.15626 5.89076 1.21694 6.03023C1.27761 6.1697 1.21658 5.99023 1.27785 6.19636C1.33911 6.4025 1.40586 6.4819 1.49996 6.66774C1.59407 6.85358 1.87478 7.23111 1.91068 6.81077Z" fill="#D46A15"/>
<path d="M3.88304 5.81325C3.88304 5.81325 4.05473 5.81173 4.0065 5.58548C3.95826 5.35923 4.08414 5.40478 3.78562 5.25409C3.48711 5.1034 3.58752 5.25585 3.40727 5.03744C3.22703 4.81903 3.32107 4.9982 3.22048 4.82575C3.11989 4.6533 2.96011 4.50805 2.96165 4.68138C2.96318 4.8547 2.93241 5.10832 3.05894 5.2272C3.18547 5.34608 3.20558 5.37924 3.31224 5.49163C3.4189 5.60402 3.31413 5.70496 3.51265 5.74986C3.6345 5.77969 3.75827 5.80087 3.88304 5.81325V5.81325Z" fill="#D46A15"/>
<g style="mix-blend-mode:multiply">
<path d="M3.58224 9.12275C4.51487 9.77408 5.54189 10.2755 6.62668 10.6091C6.49779 10.4725 6.37762 10.3269 6.26618 10.1723C6.01971 9.85998 5.79607 9.52996 5.59702 9.18488L5.46294 8.95939C5.3153 8.69402 5.18087 8.42854 5.05297 8.15633C4.98116 8.0014 4.91376 7.84866 4.85079 7.6981C4.68899 7.32619 4.55361 6.95404 4.43149 6.58844C4.1574 5.74434 3.94232 4.88187 3.78783 4.00738C2.93225 3.59496 2.06825 3.72263 1.72994 3.55229C0.349782 2.81783 -1.8664 5.36426 3.58224 9.12275Z" fill="#CCCCCC"/>
</g>
<path d="M10.2832 7.38992C10.2794 7.47212 10.2801 7.55447 10.2854 7.63659C10.3229 7.95201 10.3764 8.26529 10.4456 8.57521C10.789 10.0636 11.3398 11.4953 12.0815 12.8275C13.9743 16.2642 17.811 20.7037 25.6015 24.1747C35.2551 28.4693 43.1258 29.0662 48.9561 25.9677L49.3635 25.744C51.4661 24.5387 54.6697 24.6103 59.2644 25.1629C63.5816 25.6913 66.9817 25.5811 69.0083 23.2631C69.2841 23.0904 69.5745 22.9428 69.8762 22.822C70.2445 22.3858 70.4638 21.8414 70.5016 21.2695C70.5393 20.6975 70.3935 20.1285 70.0857 19.6467C69.9875 19.4588 69.8778 19.2771 69.7573 19.1029V19.1029C69.7501 19.083 69.7387 19.0649 69.7238 19.0499C69.4968 18.7321 69.2422 18.4354 68.9631 18.1633C68.2788 17.5085 67.5015 16.9603 66.6571 16.537V16.537C66.405 16.4125 66.153 16.2948 65.8879 16.1838C64.9239 15.7806 63.911 15.5093 62.8759 15.3771C59.9602 15.003 57.8719 16.3349 55.806 17.9533C54.7639 18.722 53.4684 19.0559 52.1887 18.8854C51.8162 18.8511 51.4482 18.7784 51.0905 18.6685L50.8653 18.5971L50.2031 18.3963C48.9846 18.0204 46.7198 17.3138 44.7926 16.6976L43.8852 16.4056C42.5607 15.984 41.5737 15.6461 41.3945 15.5543C40.8173 15.2528 36.2195 13.6001 34.8268 12.9458L34.6876 12.887C34.4755 12.8022 34.1509 12.6918 33.7536 12.562C31.8326 11.9123 28.1048 10.812 25.7145 10.1065L25.006 9.89945L23.503 9.45943L21.1156 9.08725L15.5937 8.22953L13.6956 7.92635L12.6442 7.769L11.2091 7.54172L10.2832 7.38992Z" fill="#F6B234"/>
<path d="M9.63247 3.26882C9.39483 4.36375 9.29603 5.48476 9.33846 6.6049C9.39466 6.98441 9.4574 7.3572 9.53989 7.72315C9.91403 9.6353 10.8 11.4075 12.1015 12.8473C12.9262 13.732 13.8433 14.5241 14.8367 15.2098C15.1823 15.4534 15.5477 15.7035 15.9395 15.9467C17.4897 16.9098 19.1012 17.7686 20.7634 18.5174C22.5317 19.3284 24.1781 20.0516 25.7027 20.687C26.0142 20.8176 26.3258 20.9481 26.6306 21.0654C30.3124 22.6269 34.1574 23.7625 38.0922 24.4506L38.9981 24.5826C39.9105 24.7011 40.8094 24.7798 41.7013 24.8252C42.8027 24.8869 43.9074 24.8503 45.0024 24.716C45.6726 24.6371 46.3345 24.4973 46.9799 24.2984C47.2104 24.2297 47.4276 24.1478 47.6382 24.0659C47.99 23.9272 48.3307 23.7615 48.6574 23.5702C49.5579 23.0568 50.3183 22.3263 50.8708 21.4438C51.2486 20.8538 51.8001 19.7488 52.1179 19.0926C52.1534 19.0206 52.1793 18.9441 52.1951 18.8653C52.1985 18.8231 52.1981 18.7807 52.194 18.7386C52.2225 18.4952 52.1692 18.2491 52.0425 18.0399C51.8415 17.715 51.5468 17.251 51.1722 16.7143C49.6658 14.4249 47.8886 12.3295 45.8799 10.4743L45.2544 9.93982C44.4085 9.24058 43.4884 8.63832 42.511 8.14408C41.1843 7.48916 39.6978 6.66897 38.0524 5.81019C37.9064 5.73149 37.7604 5.65278 37.6078 5.5808C35.4422 4.43399 33.1951 3.45112 30.8853 2.64031L30.3753 2.47149C27.8041 1.60432 25.149 1.01552 22.4547 0.715003C21.9985 0.665713 21.5426 0.629752 21.0933 0.613735L19.9641 0.623751C19.4557 0.62826 18.9541 0.666044 18.4724 0.710318L17.7598 0.783312C16.1932 0.981323 14.6485 1.32761 13.1462 1.8176L12.1323 2.17327C11.2746 2.47899 10.4393 2.84507 9.63247 3.26882V3.26882Z" fill="#C4C202"/>
<path d="M44.3765 15.2145C44.9496 17.2895 45.4817 19.2048 46.3612 19.3304C47.2406 19.4559 49.9012 20.099 51.1783 16.6676C49.6719 14.3782 47.8947 12.2828 45.886 10.4276C45.4228 10.5156 45.0059 10.7675 44.7102 11.138C43.9988 12.091 44.0701 14.1772 44.3765 15.2145Z" fill="#026B6A"/>
<path d="M45.0728 19.2618C44.4199 17.9973 43.9181 16.659 43.578 15.2749C43.3686 13.3911 42.47 11.6539 41.0582 10.4038C39.2207 8.73332 38.9274 8.42258 36.9302 8.86031C34.9331 9.29804 34.8424 12.4723 34.4503 13.6892C34.0583 14.906 34.6424 16.7342 34.3283 17.8037C34.0591 18.7262 35.5601 20.4262 38.9786 20.8959C42.397 21.3656 45.5774 20.3041 45.0728 19.2618Z" fill="#026B6A"/>
<path d="M34.4815 9.76206C34.2263 10.771 33.5445 12.8172 33.5146 13.9241C33.4848 15.0311 33.0152 17.182 31.4075 17.5963C29.7998 18.0106 29.067 18.0371 26.6453 16.7718C24.2236 15.5066 22.6565 13.8004 22.9048 12.7515C23.153 11.7026 26.1834 10.1157 26.8323 8.8232C27.5319 7.68478 28.6302 6.85391 29.909 6.49582C30.8837 6.18717 35.0109 7.64395 34.4815 9.76206Z" fill="#026B6A"/>
<path d="M27.7131 6.11527C27.7131 6.11527 26.512 8.44601 25.7912 9.07909C25.0703 9.71218 22.7831 12.4392 21.535 12.4503C20.287 12.4614 17.7122 11.0642 16.6151 10.2205C15.5179 9.37688 15.4034 7.63783 15.5742 6.78295C15.6666 6.31529 15.8913 5.88473 16.2212 5.5434C16.551 5.20206 16.9718 4.96459 17.4326 4.85972C18.6571 4.42218 20.8563 4.42935 21.5501 3.72317C22.2438 3.01699 25.5141 3.90802 26.3363 4.27407C27.1584 4.64013 28.2784 5.07688 27.7131 6.11527Z" fill="#026B6A"/>
<path d="M12.6981 2.68825C12.1926 4.51281 13.75 5.12569 14.7961 5.42976C15.8423 5.73382 16.3163 4.08289 17.925 3.77527C18.0382 3.75174 18.1527 3.73514 18.2679 3.72556C18.5255 3.72328 18.7562 3.67456 18.9804 3.63257C19.7273 3.54841 20.4503 3.31538 21.1074 2.94701C21.7024 2.27504 20.9743 1.34813 19.9641 0.630397C19.4557 0.634906 18.9541 0.67269 18.4724 0.716964L17.7598 0.789952C16.1932 0.987964 14.6485 1.33426 13.1462 1.82425C12.9471 2.08303 12.7954 2.37562 12.6981 2.68825Z" fill="#026B6A"/>
<path d="M38.0386 5.76368C37.9738 6.14024 37.88 6.5111 37.7579 6.87288C37.2751 8.27722 39.0046 8.19521 40.0512 8.55927C41.0979 8.92334 42.2366 10.7266 43.2696 11.0375C44.0311 11.2641 44.8551 10.3567 45.2406 9.89329C44.3948 9.19406 43.4747 8.59179 42.4972 8.09756C41.1508 7.44281 39.6775 6.62251 38.0386 5.76368Z" fill="#026B6A"/>
<path d="M29.4315 4.77999C29.547 5.15231 31.0391 5.84578 32.204 6.14212C33.369 6.43847 34.6329 8.214 35.1901 8.48907C35.7472 8.76414 36.8694 7.96082 37.1604 7.26488C37.3526 6.70127 37.4977 6.12238 37.5941 5.53429C35.4284 4.38748 33.1814 3.40462 30.8716 2.5938C29.9799 3.32174 29.3432 4.50743 29.4315 4.77999Z" fill="#026B6A"/>
<path d="M21.0933 0.61377C21.1302 0.811977 21.1873 1.00583 21.2635 1.19228C21.715 2.20832 22.0403 1.65874 22.249 2.10358C22.4576 2.54841 23.1211 2.89588 24.5244 3.25678C25.9276 3.61768 27.7091 4.1819 28.583 4.42083C29.1986 4.58871 29.9659 3.23518 30.3614 2.40498C27.7923 1.56137 25.1419 0.994897 22.4546 0.715037C21.9985 0.665747 21.5425 0.629786 21.0933 0.61377Z" fill="#026B6A"/>
<path d="M9.63241 3.26886C9.39477 4.36379 9.29597 5.4848 9.33839 6.60493C9.39459 6.98445 9.45733 7.35724 9.53983 7.72319L10.3053 7.6564C10.6025 7.65376 10.8991 7.59112 11.1827 7.54861C11.8026 7.51353 12.4074 7.34206 12.9547 7.04621C13.3533 6.56932 12.9081 6.25992 12.1139 5.32026C11.3197 4.3806 12.1322 2.17331 12.1322 2.17331C11.2746 2.47903 10.4393 2.84511 9.63241 3.26886V3.26886Z" fill="#026B6A"/>
<path d="M9.80676 8.7742C10.2492 10.2869 11.0348 11.6746 12.1013 12.8273C12.926 13.7121 13.8431 14.5042 14.8365 15.1898C15.5885 15.0898 15.2899 14.9325 16.086 13.8454C16.882 12.7583 17.8111 11.7833 17.3129 11.4477C16.5622 10.9664 15.8888 10.372 15.316 9.68538C14.8211 9.05818 14.2794 8.47012 13.6956 7.92634C13.5621 7.78675 13.3865 7.69564 13.1964 7.66718C13.0062 7.63872 12.8121 7.67451 12.6442 7.76899C11.9513 8.10369 11.2313 8.37774 10.4919 8.58811L9.80676 8.7742Z" fill="#026B6A"/>
<path d="M16.179 15.3979C16.1144 15.5585 16.0235 15.7393 15.9393 15.9267C17.4895 16.8898 19.101 17.7486 20.7632 18.4973C22.5315 19.3084 24.1779 20.0316 25.7025 20.667C25.9812 19.3311 26.899 17.8162 25.9359 17.2048C24.8943 16.6184 23.9604 15.8554 23.1753 14.9492C22.3539 13.9231 22.1934 12.9578 21.4701 13.3109C21.4701 13.3109 19.1366 13.0516 18.4778 12.4907C17.819 11.9299 16.5477 14.5279 16.179 15.3979Z" fill="#026B6A"/>
<path d="M26.9233 19.8228C26.8219 20.2971 26.6866 20.6783 26.6304 21.0455C30.3122 22.6069 34.1572 23.7425 38.092 24.4306C38.2439 24.4293 37.6718 23.2209 37.8251 22.6262C37.8726 22.4731 37.8882 22.3117 37.8708 22.1521C37.8534 21.9926 37.8034 21.8385 37.724 21.6994C37.6445 21.5604 37.5374 21.4395 37.4093 21.3444C37.2812 21.2493 37.135 21.1821 36.9798 21.147C36.9798 21.147 34.0793 20.2527 33.3694 19.139L33.3227 19.0794C33.2225 18.9499 33.0933 18.8462 32.9457 18.7768C32.7982 18.7074 32.6365 18.6743 32.4738 18.6802C31.5753 18.6348 30.3189 19.1993 29.3131 18.9749C27.897 18.6541 27.1766 18.5939 26.9233 19.8228Z" fill="#026B6A"/>
<path d="M38.9979 24.5626C39.9103 24.6812 40.8092 24.7599 41.7011 24.8053C43.4776 24.9402 45.2638 24.7619 46.9797 24.2785C46.9229 23.9588 46.8247 23.6481 46.6875 23.3543C46.6284 23.2228 46.5588 23.0963 46.4794 22.9762C46.251 22.5222 45.8877 22.1517 45.4403 21.9165C44.993 21.6814 44.484 21.5934 43.9847 21.6649C42.9646 21.9035 41.9051 21.9129 40.881 21.6924C40.46 21.5298 40.0043 21.481 39.5589 21.5508C39.3087 21.633 39.1917 21.8474 38.9765 22.1493C38.4998 22.7536 39.5921 23.0506 38.9979 24.5626Z" fill="#026B6A"/>
<path d="M46.7421 20.5737C46.5262 21.523 46.6255 22.5178 47.0248 23.4046C47.1603 23.6687 47.3572 23.8958 47.5986 24.0662C47.9504 23.9275 48.2911 23.7618 48.6178 23.5705C49.5183 23.0572 50.2787 22.3266 50.8311 21.4441C51.2089 20.8541 51.7605 19.7492 52.0782 19.093C52.1343 18.9825 52.1691 18.8623 52.1808 18.7387C51.8998 18.3345 51.5145 18.0779 51.0813 18.3818C50.1433 19.1035 49.2073 20.0452 48.2039 20.0941C47.2006 20.143 46.9019 19.9723 46.7421 20.5737Z" fill="#026B6A"/>
<path d="M67.7896 22.8672C69.0062 23.0231 69.0016 23.2564 69.0016 23.2564C69.2774 23.0837 69.5678 22.9361 69.8694 22.8154C70.2378 22.3792 70.4571 21.8348 70.4949 21.2628C70.5326 20.6909 70.3868 20.1218 70.079 19.6401C69.8144 19.788 69.6105 20.0261 69.5038 20.3119C69.2771 20.8072 68.8872 20.7774 68.1302 21.0641C67.3733 21.3508 67.7084 21.1545 67.2435 21.6053C66.7786 22.0561 66.5796 22.6979 67.7896 22.8672Z" fill="#D46A15"/>
<path d="M66.8874 21.6617C66.8874 21.6617 66.4626 22.1655 66.5239 22.3717C66.5851 22.5778 66.2877 22.5471 65.7324 22.4854C65.1771 22.4236 64.518 22.5695 64.1261 22.3196C63.7343 22.0697 63.2552 21.6606 63.7444 21.723C64.2337 21.7853 64.1689 21.9259 64.5247 21.836C64.7256 21.8127 64.9166 21.735 65.0774 21.6111C65.2743 21.4694 65.5133 21.6073 65.7967 21.5514C66.0802 21.4956 67.1158 21.3597 66.8874 21.6617Z" fill="#D46A15"/>
<path d="M69.2324 20.2342C69.222 20.1239 69.2337 20.0126 69.2668 19.9069C69.2999 19.8013 69.3537 19.7034 69.425 19.6192C69.6793 19.2502 69.8709 19.2619 69.7105 19.0433C69.5501 18.8247 69.0039 18.3028 68.6024 18.4597C68.201 18.6166 67.9811 18.3986 67.8517 18.6931C67.7222 18.9876 67.6562 18.9882 67.7783 19.3604C67.8866 19.607 67.9299 19.8776 67.9042 20.146C67.8673 20.2281 67.8629 20.3213 67.8919 20.4066C67.9209 20.4918 67.9811 20.5627 68.0601 20.6046C68.2457 20.683 68.6738 20.5459 68.9049 20.5438C68.9468 20.5462 68.9887 20.5399 69.0281 20.5254C69.0675 20.511 69.1036 20.4886 69.1342 20.4597C69.1648 20.4307 69.1893 20.3959 69.2061 20.3571C69.223 20.3184 69.2319 20.2766 69.2324 20.2342V20.2342Z" fill="#D46A15"/>
<path d="M66.368 16.6995C66.3289 16.7665 66.5151 16.9049 66.8081 17.1823C67.1011 17.4597 66.8106 17.469 66.932 17.7546C66.9731 17.8607 67.0508 17.9483 67.1508 18.0014C67.2507 18.0544 67.3662 18.0692 67.4761 18.0431C67.5833 17.9858 67.7019 17.9538 67.8231 17.9492C67.9442 17.9447 68.0648 17.9678 68.1759 18.0169C68.6068 18.1997 68.3146 18.0156 68.6195 18.1396C68.6654 18.1675 68.7181 18.182 68.7718 18.1815C68.8254 18.1811 68.8778 18.1656 68.9233 18.1369C68.2389 17.4821 67.4617 16.934 66.6172 16.5106V16.5106C66.386 16.4994 66.3936 16.6126 66.368 16.6995Z" fill="#D46A15"/>
<path d="M67.7358 18.2741C67.7358 18.2741 67.792 18.6603 67.4679 18.5965C67.1437 18.5327 67.102 18.2997 66.9122 18.4948C66.7224 18.6898 66.6299 18.6839 66.711 18.8899C66.7921 19.0959 66.5343 19.0781 66.0963 18.8287C65.6582 18.5792 65.5284 18.8337 65.4327 18.4746C65.3371 18.1154 65.2703 18.036 65.3872 17.8083C65.504 17.5805 65.4836 17.5074 65.7219 17.572C65.9602 17.6365 65.926 17.4968 66.2375 17.6207C66.5489 17.7446 66.4436 17.7856 66.6953 17.8633C66.9469 17.9411 67.3607 18.4241 67.4583 18.2632C67.5559 18.1024 67.7358 18.2741 67.7358 18.2741Z" fill="#D46A15"/>
<path d="M67.5243 19.016C67.5117 18.9501 67.477 18.8906 67.4262 18.8474C67.3753 18.8041 67.3113 18.7798 67.2448 18.7785C67.0005 18.7807 66.9546 18.8144 66.9964 19.0607C67.0382 19.307 67.2027 19.2389 67.1788 19.5258C67.1478 19.8084 67.1866 20.0944 67.2919 20.3581C67.3859 20.5373 67.6808 21.0214 67.7184 20.7944C67.756 20.5674 67.4711 20.4565 67.5085 20.2162C67.546 19.9759 67.5541 20.1358 67.6046 19.8753C67.6551 19.6149 67.7971 19.2469 67.5243 19.016Z" fill="#D46A15"/>
<path d="M66.4867 17.4251C66.4867 17.4251 66.4852 17.2585 66.1857 16.9945C65.8861 16.7304 65.8021 16.9379 65.4691 16.6208C65.1361 16.3037 64.7516 16.1338 64.41 16.3368C64.0684 16.5399 63.5415 16.7112 63.7148 16.8897C63.8881 17.0682 64.0819 17.3198 64.2082 17.4187C64.3346 17.5176 64.5277 17.7025 64.7761 17.4136C65.0245 17.1248 65.1292 17.0172 65.3614 17.1351C65.5936 17.253 65.6277 17.3728 65.8059 17.3645C65.9842 17.3563 66.6343 17.6905 66.4867 17.4251Z" fill="#D46A15"/>
<path d="M65.1679 17.6569C65.1019 17.6377 65.0321 17.6359 64.9652 17.6517C64.8983 17.6675 64.8365 17.7003 64.7857 17.7469C64.5957 17.9153 64.5187 18.176 64.2595 17.9916C64.0003 17.8072 63.7513 17.2761 63.4766 17.5852C63.202 17.8943 62.9229 18.4368 63.3138 18.58C63.6069 18.6701 63.9203 18.6673 64.2118 18.572C64.5288 18.5692 64.5859 18.3021 64.7846 18.3736C64.9834 18.4452 65.5329 17.8603 65.1679 17.6569Z" fill="#D46A15"/>
<path d="M62.869 15.3371C62.832 15.6375 63.7201 15.9963 64.1944 15.8587C64.6687 15.7212 64.5774 15.8553 65.2874 16.2357C65.6723 16.4523 65.8296 16.3109 65.8875 16.1437C64.9215 15.74 63.9063 15.4688 62.869 15.3371Z" fill="#D46A15"/>
<path d="M63.8741 16.235C63.6681 16.086 63.4187 16.0107 63.1655 16.0213C62.7759 16.0247 62.5742 15.6131 62.4524 16.0276C62.3306 16.442 62.4131 16.808 62.1364 16.8837C61.8597 16.9595 61.617 17.8951 61.9651 17.6786C62.2166 17.547 62.4396 17.366 62.6208 17.1461C62.7366 16.9498 62.9179 16.8017 63.1322 16.7282C63.3035 16.6867 63.3574 16.8062 63.4548 16.6187C63.5522 16.4312 64.1064 16.3663 63.8741 16.235Z" fill="#D46A15"/>
<path d="M63.4407 17.2655C63.4407 17.2655 63.4877 16.5984 63.0427 17.0624C62.5977 17.5263 62.8023 17.5045 62.3876 17.6615C61.973 17.8186 61.8676 17.8528 61.7319 18.194C61.5963 18.5353 61.287 18.6647 61.5007 18.9295C61.7144 19.1942 62.0482 18.8579 62.3168 19.3556C62.5854 19.8532 62.9818 19.8764 62.9313 19.3968C62.8808 18.9172 62.7223 18.912 62.7258 18.5586C62.7292 18.2052 62.5719 18.3333 62.7226 18.2053C62.8734 18.0773 62.7861 17.9113 62.9294 17.6901C63.0727 17.4688 63.4422 17.4255 63.4407 17.2655Z" fill="#D46A15"/>
<path d="M62.5273 15.5468C62.5273 15.5468 62.4189 15.2411 61.8991 15.4591C61.3794 15.677 61.5531 15.9088 61.0767 15.8064C60.6003 15.7039 60.4746 15.6717 60.1868 15.9943C59.8991 16.3169 59.689 16.4587 59.9686 16.7096C60.015 16.7691 60.0726 16.8187 60.1382 16.8554C60.2038 16.892 60.276 16.9151 60.3506 16.9231C60.4251 16.9311 60.5005 16.924 60.5723 16.9022C60.6441 16.8803 60.7108 16.8442 60.7685 16.7958C60.9356 16.6908 61.0784 16.5508 61.1875 16.3854C61.3968 16.1502 61.4897 16.2027 61.5896 16.2952C61.6894 16.3876 61.7863 16.8868 61.9496 16.6787C62.1128 16.4706 62.075 16.6776 62.1508 16.2836C62.2266 15.8895 62.7598 15.7048 62.5273 15.5468Z" fill="#D46A15"/>
<path d="M61.5689 17.6821C61.5689 17.6821 61.6031 17.0751 61.2862 17.0779C60.9692 17.0808 60.8518 17.2485 60.6288 17.4171C60.4057 17.5858 60.3656 17.5261 60.2241 17.9541C60.0826 18.382 60.0869 18.1286 60.0385 18.6224C59.99 19.1162 59.9585 19.2898 60.1711 19.4279C60.3837 19.566 60.4323 19.0923 60.5366 18.9447C60.641 18.7971 60.5349 18.7513 60.7922 18.7224C61.0495 18.6934 61.03 18.7203 61.1927 18.4588C61.3555 18.1974 61.2947 18.0379 61.4199 18.0101C61.5451 17.9823 61.5689 17.6821 61.5689 17.6821Z" fill="#D46A15"/>
<path d="M58.8881 17.7192C58.8881 17.7192 58.3092 17.2377 58.0277 17.5135C57.7462 17.7894 57.9082 18.1813 57.6122 18.3239C57.3163 18.4665 57.7668 18.6292 58.0966 18.5796C58.4264 18.53 58.4903 18.2894 58.6283 18.2216C58.7486 18.1408 58.8791 18.0768 59.0163 18.0314C59.1547 18.0035 59.1671 17.9034 58.8881 17.7192Z" fill="#D46A15"/>
<path d="M58.6472 18.8681C58.5416 18.8733 58.4384 18.9022 58.3452 18.9526C58.252 19.003 58.171 19.0737 58.1082 19.1596C57.972 19.4341 57.9808 19.6807 58.1136 19.7595C58.2463 19.8384 58.4135 19.3302 58.6243 19.2617C58.835 19.1931 59.0073 19.2583 59.0851 19.1042C59.163 18.9502 58.9765 18.7652 58.6472 18.8681Z" fill="#D46A15"/>
<path d="M62.3325 19.6421C62.2411 19.5323 62.1289 19.442 62.0024 19.3767C61.8759 19.3114 61.7378 19.2724 61.5961 19.2619C61.2065 19.2654 61.3745 19.5906 61.0765 19.4999C61.0086 19.4706 60.9356 19.4552 60.8618 19.4544C60.788 19.4537 60.7148 19.4676 60.6463 19.4955C60.5779 19.5233 60.5156 19.5645 60.4629 19.6168C60.4102 19.669 60.3683 19.7312 60.3395 19.7998C60.243 20.094 60.4877 20.1318 60.3458 20.5064C60.2038 20.881 60.8954 20.6749 61.1056 20.553C61.3159 20.4311 61.2554 20.3116 61.5445 20.1424C61.8335 19.9732 61.6741 19.8679 62.0253 20.0048C62.3766 20.1417 62.5589 19.8534 62.3325 19.6421Z" fill="#D46A15"/>
<path d="M64.5109 21.0161C64.3001 20.8883 64.1203 20.7145 63.9846 20.5075C63.7172 20.1365 63.9269 19.9546 63.5176 19.9716C63.1083 19.9885 63.1068 19.8152 62.8588 20.1574C62.6109 20.4996 62.8296 20.5844 62.4468 20.6144C62.0641 20.6445 62.6276 20.8862 62.9001 21.0838C63.1726 21.2814 63.1382 21.1283 63.4427 21.2123C63.7473 21.2963 63.5756 21.2978 63.9198 21.3881C64.0204 21.4242 64.1278 21.4371 64.234 21.4258C64.3402 21.4145 64.4425 21.3792 64.5334 21.3226C64.711 21.2411 64.9416 21.1857 64.5109 21.0161Z" fill="#D46A15"/>
<path d="M62.4191 21.2081C62.2863 21.1292 62.2109 20.8165 61.7545 20.7406C61.2982 20.6646 61.4631 20.6498 61.187 20.7856C60.9108 20.9214 60.8629 20.7352 60.7985 20.9157C60.734 21.0963 60.6452 21.5038 60.8624 21.4219C61.0796 21.3399 61.1105 21.0997 61.4819 21.2764C61.8533 21.4531 61.8669 21.493 62.1443 21.5038C62.4218 21.5147 62.6031 21.8464 62.8057 21.618C63.0084 21.3895 62.8837 21.4773 62.4191 21.2081Z" fill="#D46A15"/>
<g style="mix-blend-mode:multiply">
<path d="M9.63249 3.26883C9.39485 4.36376 9.29605 5.48478 9.33847 6.60491C9.39467 6.98443 9.45741 7.35721 9.53991 7.72316C9.91404 9.63531 10.8 11.4075 12.1015 12.8473C13.9943 16.284 17.831 20.7235 25.6215 24.1945C35.2751 28.4891 43.1458 29.086 48.9761 25.9875C47.9367 25.7033 46.6256 25.3016 45.0025 24.7226C43.3197 24.1242 41.292 23.3488 38.8725 22.3303L37.7986 21.8731C36.3401 21.246 34.74 20.5313 32.9983 19.7289C32.3882 19.4477 31.8045 19.1595 31.2471 18.8577C30.6897 18.556 30.0789 18.2014 29.5344 17.8662C27.1201 16.3781 24.9767 14.4825 23.1977 12.2622L22.8837 11.8583C21.2019 9.64502 19.9474 7.13216 19.1858 4.45082C19.1107 4.17147 19.0357 3.90546 18.9738 3.63266C18.7338 2.66567 18.5639 1.68231 18.4656 0.69039L17.753 0.763379C16.1864 0.961391 14.6417 1.30768 13.1394 1.79767L12.1255 2.15335C11.2697 2.46582 10.4366 2.83857 9.63249 3.26883V3.26883Z" fill="#CCCCCC"/>
</g>
<path d="M23.7485 32.6715C24.2808 33.6838 24.9203 34.6349 25.6558 35.508C27.4415 37.3825 29.8615 38.5085 32.4331 38.6614C33.3207 38.6645 34.2059 38.5672 35.0721 38.3713C37.8801 37.7664 40.8513 36.2133 42.2968 33.887C43.526 31.8409 44.4163 29.6058 44.9325 27.2701C45.323 25.8732 44.3766 24.9082 42.9839 24.9939C41.9477 25.0631 40.6591 25.7146 39.5034 27.1982C36.7936 30.6824 33.8039 31.6489 28.7728 31.7736C25.0753 31.8664 22.5815 30.6618 23.7485 32.6715Z" fill="#F6B234"/>
<path d="M44.3282 27.6287C44.3099 27.9659 44.253 28.2997 44.1587 28.6236C44.0167 28.9982 43.808 29.2934 43.6694 29.2947C43.5307 29.2959 43.3794 29.3639 43.1573 28.8992C42.9353 28.4345 43.2944 28.7113 42.9286 28.4279C42.5629 28.1444 42.4884 27.9384 42.7827 27.6158C43.077 27.2932 44.3831 27.1149 44.3282 27.6287Z" fill="#D46A15"/>
<path d="M43.679 29.6346C43.6255 29.8807 43.5526 30.1221 43.4608 30.3565C43.3698 30.5173 43.299 30.7246 43.1409 30.7727C42.9829 30.8208 42.8438 30.7753 42.8218 30.5289C42.7998 30.2824 42.8993 30.3348 42.8174 30.0356C42.7355 29.7363 42.6701 29.8035 42.8139 29.6422C42.9578 29.481 42.9104 29.348 43.1748 29.3724C43.4391 29.3967 43.298 29.8646 43.4159 29.7569C43.5338 29.6492 43.7107 29.4876 43.679 29.6346Z" fill="#D46A15"/>
<path d="M43.0121 28.9071C43.0121 28.9071 43.1168 28.7929 42.9368 28.6078C42.7569 28.4227 42.7839 28.4891 42.6442 28.3837C42.5046 28.2783 42.4193 28.339 42.3419 28.5464C42.2645 28.7538 42.2849 28.8202 42.187 28.9478C42.089 29.0753 42.0174 29.1893 42.1902 29.3144C42.363 29.4396 42.4874 29.3118 42.5864 29.3109C42.6855 29.31 42.645 29.2171 42.7574 29.2227C42.8697 29.2284 42.928 29.1079 43.0121 28.9071Z" fill="#D46A15"/>
<path d="M42.5933 30.8376C42.6526 30.7563 42.6841 30.6577 42.6832 30.5568C42.6824 30.4558 42.649 30.3578 42.5883 30.2776C42.4638 30.1303 42.3822 29.951 42.3526 29.7597C42.3182 29.6066 42.1578 29.3947 42.0209 29.5959C41.884 29.7972 41.6787 29.7257 41.7664 29.9315C41.854 30.1374 41.9398 30.13 41.9218 30.3302C41.9037 30.5303 41.8311 30.531 41.8125 30.6712C41.794 30.8113 41.7223 30.9186 41.8485 30.9975C41.9746 31.0764 42.1977 30.9144 42.305 31.0935C42.4122 31.2725 42.5355 31.0248 42.5933 30.8376Z" fill="#D46A15"/>
<path d="M43.1157 30.9063C43.1157 30.9063 42.9028 30.7348 42.7657 30.9094C42.6286 31.0839 42.7079 31.0966 42.61 31.2241C42.5121 31.3517 42.3662 31.2863 42.4079 31.5193C42.4128 31.6474 42.4578 31.7707 42.5365 31.8715C42.5966 31.9443 42.8535 31.8686 42.898 31.6749C42.929 31.5276 42.9859 31.3871 43.066 31.2601C43.1377 31.1528 43.0836 31.0066 43.1157 30.9063Z" fill="#D46A15"/>
<path d="M42.2008 31.2544C42.1611 31.2548 42.0074 31.0495 41.87 31.1907C41.7326 31.3319 41.8043 31.2313 41.6872 31.4256C41.57 31.62 41.5766 31.62 41.4585 31.701C41.3403 31.7821 41.3003 31.7424 41.341 31.8554C41.3816 31.9684 41.5919 31.8532 41.6447 31.8527C41.6976 31.8522 41.7962 31.8047 41.8352 31.731C41.8741 31.6573 41.9404 31.6834 41.9871 31.7297C42.0337 31.7759 42.107 31.8553 42.1665 31.8614C42.226 31.8676 42.3646 31.8597 42.3036 31.6802C42.2426 31.5007 42.3734 31.3596 42.2008 31.2544Z" fill="#D46A15"/>
<path d="M41.6491 30.1126C41.6491 30.1126 41.4765 30.0075 41.439 30.2478C41.4015 30.4882 41.441 30.4745 41.3895 30.6216C41.3379 30.7687 41.4374 30.8145 41.2146 31.0098C40.9918 31.2051 40.9442 31.0522 40.9326 31.2257C40.9209 31.3991 40.9357 31.5857 41.0808 31.5577C41.2327 31.5209 41.3758 31.4539 41.5017 31.3606C41.6066 31.2797 41.6272 31.3595 41.632 31.1661C41.6393 31.0317 41.6558 30.8979 41.6813 30.7657C41.68 30.6124 41.6405 30.626 41.6791 30.5124C41.7177 30.3987 41.7944 30.1113 41.6491 30.1126Z" fill="#D46A15"/>
<path d="M40.6761 32.0947C40.5897 32.0421 40.3751 31.664 40.0169 32.2405C39.6588 32.8171 39.5949 33.0576 39.3054 33.1802C39.016 33.3028 38.2682 33.1294 37.679 33.7146C37.0898 34.2999 36.6342 35.0573 37.2729 34.8383C37.9115 34.6193 38.4007 33.9216 38.8094 33.838C39.2181 33.7543 39.4681 33.6454 39.615 33.8308C39.7619 34.0162 39.5555 34.5714 39.901 34.0549C40.2464 33.5385 40.3328 33.6044 40.355 33.1242C40.3771 32.644 41.2272 32.4298 40.6761 32.0947Z" fill="#D46A15"/>
<path d="M42.4268 32.1658C42.4268 32.1658 42.2208 32.021 42.0698 32.1223C41.9188 32.2236 41.9572 32.09 41.806 32.1646C41.7557 32.1872 41.7154 32.2276 41.6928 32.2782C41.6701 32.3288 41.6666 32.3861 41.6829 32.4391C41.6837 32.5191 41.8155 32.4979 41.9024 32.6105C41.9892 32.723 42.0289 32.7227 42.056 32.8091C42.0832 32.8955 42.1769 33.0347 42.2612 32.854C42.3454 32.6732 42.3372 32.4866 42.4357 32.4324C42.4557 32.4162 42.4717 32.3955 42.4824 32.372C42.4931 32.3484 42.4982 32.3227 42.4973 32.2969C42.4964 32.271 42.4896 32.2457 42.4774 32.2229C42.4651 32.2002 42.4478 32.1806 42.4268 32.1658Z" fill="#D46A15"/>
<path d="M41.548 32.1202C41.515 32.1205 41.2244 32.1231 41.2065 32.33C41.1885 32.5368 41.2615 32.5761 41.1435 32.6839C41.0256 32.7916 40.8992 32.686 40.8288 32.94C40.7818 33.1193 40.7835 33.3082 40.8337 33.4866C40.8346 33.5866 41.3175 33.6757 41.4148 33.4815C41.5121 33.2873 41.5971 33.1932 41.5234 33.0672C41.4496 32.9412 41.4753 32.8543 41.4483 32.7945C41.4318 32.7357 41.4312 32.6735 41.4467 32.6145C41.4461 32.5478 41.5049 32.474 41.5433 32.3336C41.5713 32.2656 41.573 32.1895 41.548 32.1202V32.1202Z" fill="#D46A15"/>
<path d="M40.6181 33.7419C40.6176 33.6885 40.4903 33.483 40.38 33.6973C40.2696 33.9116 40.2774 34.0449 40.1334 34.1928C39.9894 34.3408 39.8923 34.5617 39.7467 34.523C39.6011 34.4842 39.3764 34.4662 39.3849 34.6862C39.3935 34.9061 39.3431 35.1866 39.5211 35.145C39.6111 35.1362 39.6984 35.1088 39.7776 35.0645C39.8567 35.0202 39.926 34.96 39.9811 34.8876C40.0656 34.7401 40.2046 34.7789 40.2633 34.6917C40.3252 34.5722 40.375 34.4467 40.4119 34.317C40.4111 34.2304 40.4107 34.1904 40.4758 34.0831C40.5409 33.9759 40.6518 33.8149 40.6181 33.7419Z" fill="#D46A15"/>
<path d="M41.9659 33.0699C41.9659 33.0699 41.9309 32.8435 41.8049 32.7913C41.679 32.7391 41.6771 32.5191 41.6121 32.6397C41.5636 32.7733 41.5649 32.9202 41.6157 33.053C41.6563 33.1526 41.7232 33.2587 41.6181 33.3197C41.5379 33.3789 41.4766 33.4605 41.4419 33.5546C41.4424 33.6079 41.5227 33.7272 41.5557 33.7269C41.6181 33.7217 41.6777 33.698 41.7268 33.6587C41.7792 33.6116 41.8383 33.571 41.8508 33.4976L41.9659 33.0699Z" fill="#D46A15"/>
<path d="M41.2394 33.8031C41.2394 33.8031 40.9282 33.7192 40.87 33.853C40.8117 33.9869 40.9135 33.5526 40.7466 34.0941C40.5797 34.6356 40.5277 34.7294 40.6205 34.762C40.7132 34.7945 41.015 34.5651 41.015 34.5651C41.0516 34.4852 41.0818 34.4024 41.1052 34.3176C41.1046 34.2443 41.2171 34.27 41.2695 34.2228C41.3471 34.1525 41.4113 34.0683 41.4588 33.9745L41.2394 33.8031Z" fill="#D46A15"/>
<path d="M39.4473 34.2723C39.4473 34.2723 39.4773 33.932 39.2531 33.974C39.029 34.016 39.0228 34.0693 38.8782 34.144C38.7336 34.2186 38.5752 34.2267 38.4776 34.4009C38.3801 34.5751 38.2879 34.6026 38.1969 34.7634C38.1059 34.9242 37.9856 34.7652 37.9347 34.9924C37.8839 35.2195 37.9764 35.2253 38.0894 35.3043C38.2024 35.3833 38.2083 35.3033 38.4602 35.4077C38.5282 35.4581 38.6122 35.4815 38.6961 35.4734C38.7801 35.4652 38.8582 35.4262 38.9154 35.3637C38.9912 35.2626 39.0442 35.1461 39.0709 35.0223C39.0767 34.9268 39.0758 34.831 39.0684 34.7356C39.0594 34.6958 39.0612 34.6543 39.0736 34.6155C39.0861 34.5767 39.1087 34.5419 39.1391 34.515C39.224 34.4142 39.4479 34.3389 39.4473 34.2723Z" fill="#D46A15"/>
<path d="M40.2403 35.0853C40.2403 35.0853 40.179 34.8725 39.9828 35.0876C39.7866 35.3027 39.7805 35.356 39.6486 35.3839C39.5168 35.4117 39.5343 35.1516 39.2647 35.2873C38.9952 35.423 39.0356 35.516 38.8385 35.6244C38.6413 35.7328 38.5743 35.6268 38.4095 35.6616C38.345 35.6836 38.2886 35.725 38.2478 35.7801C38.207 35.8352 38.1838 35.9015 38.1811 35.9702C38.1721 36.0314 38.1759 36.0939 38.1924 36.1534C38.2088 36.213 38.2375 36.2685 38.2767 36.3161C38.3171 36.4091 38.4558 36.4145 38.516 36.5006C38.5762 36.5868 38.7293 36.7187 38.7622 36.7051C38.7951 36.6915 38.9544 36.7834 39.0523 36.6559C39.1341 36.5262 39.2282 36.4048 39.3331 36.2934C39.536 36.0849 39.6026 36.151 39.7208 36.0699C39.8191 36.0094 39.902 35.9264 39.963 35.8278C40.0804 35.6667 40.2183 35.5788 40.2501 35.4452C40.282 35.3116 40.4851 35.1298 40.4445 35.0168C40.4038 34.9038 40.581 34.7756 40.4422 34.7568C40.3033 34.7381 40.379 35.0841 40.2403 35.0853Z" fill="#D46A15"/>
<path d="M36.9816 34.0075C36.8969 34.0031 36.8125 34.0208 36.7366 34.0589C36.6606 34.0969 36.5955 34.154 36.5477 34.2247C36.3847 34.4595 36.4449 34.5456 36.2604 34.6006C36.076 34.6555 35.8764 34.4906 35.912 34.777C35.9476 35.0634 35.9154 35.157 36.0155 35.2828C36.1157 35.4085 36.3809 35.5262 36.4267 35.4724C36.5226 35.3487 36.5891 35.2045 36.6211 35.0507C36.6201 34.9374 36.5352 35.0515 36.6848 34.7901C36.8344 34.5288 37.1136 33.993 36.9816 34.0075Z" fill="#D46A15"/>
<path d="M37.5982 35.0354C37.5982 35.0354 37.3714 34.7774 37.1949 34.979C37.0184 35.1805 36.9572 34.9811 36.8455 35.0487C36.7338 35.1164 36.6546 35.1171 36.6041 35.3775C36.5535 35.638 36.3814 35.5862 36.4491 35.7723C36.5168 35.9584 36.8783 35.7685 37.0695 35.7334C37.2607 35.6984 37.2799 35.6316 37.3997 35.7305C37.5194 35.8295 37.5989 35.8554 37.6709 35.7814C37.7429 35.7075 37.928 35.7258 37.8667 35.5264C37.8055 35.3269 37.932 35.4324 37.7989 35.327C37.6659 35.2215 37.7302 35.0275 37.5982 35.0354Z" fill="#D46A15"/>
<path d="M37.9573 36.0589L37.757 35.814C37.7036 35.7478 37.6328 35.9551 37.5208 35.9895C37.4089 36.0238 37.3029 35.9914 37.1708 35.9926C37.0388 35.9938 37.066 36.0802 37.0207 36.1939C36.9755 36.3077 36.7842 36.3294 36.8514 36.4554C36.9185 36.5815 37.229 36.5921 37.3154 36.658C37.4019 36.7239 37.4607 36.6567 37.4884 36.7965C37.516 36.9362 37.621 36.8553 37.7537 36.9341C37.8865 37.0129 38.1177 37.0176 38.1434 36.9307C38.169 36.8438 38.4267 36.8615 38.3131 36.7091C38.1995 36.5568 37.9747 36.5321 37.9933 36.392C38.0119 36.2518 37.9977 36.1453 37.9573 36.0589Z" fill="#D46A15"/>
<path d="M36.0385 35.6359C36.0385 35.6359 36.1743 35.3147 35.8574 35.3242C35.5405 35.3337 35.7184 35.2854 35.5453 35.1336C35.3723 34.9818 35.2666 34.9828 35.0765 35.1378C34.9409 35.2475 34.7959 35.3447 34.6432 35.4283C34.5182 35.4827 34.3753 35.7574 34.647 35.855C34.9186 35.9525 35.1344 35.7106 35.3067 35.7758C35.4789 35.8409 35.4657 35.8344 35.5459 35.9403C35.6261 36.0463 35.7528 36.1918 35.9167 36.0504C36.008 35.9329 36.0516 35.7847 36.0385 35.6359V35.6359Z" fill="#D46A15"/>
<path d="M36.4851 36.1119C36.4851 36.1119 36.4426 35.7856 36.2457 35.9274C36.0489 36.0691 36.1305 36.3351 35.9325 36.3502C35.7345 36.3653 35.6667 36.1659 35.5286 36.2338C35.3905 36.3017 35.3911 36.3617 35.3393 36.4888C35.286 36.6036 35.26 36.7294 35.2634 36.8562C35.2846 36.9489 35.3316 37.0336 35.3989 37.1004C35.4661 37.1671 35.5509 37.213 35.6431 37.2328C35.8745 37.2641 36.0053 37.1096 36.131 37.1418C36.238 37.1577 36.3412 37.1929 36.4357 37.2458C36.5022 37.2985 36.7329 37.2431 36.772 37.1894C36.8287 37.1277 36.879 37.0602 36.9221 36.9881C36.8882 36.8959 36.8382 36.8106 36.7746 36.7361C36.7009 36.6574 36.6157 36.5907 36.5219 36.5383L36.5924 36.291L36.4851 36.1119Z" fill="#D46A15"/>
<path d="M34.7752 36.1605C34.7752 36.1605 34.5683 35.9157 34.4042 36.0238C34.24 36.1319 34.2668 36.1717 34.1154 36.233C33.9641 36.2944 33.9363 36.1346 33.739 36.2364C33.5418 36.3381 33.3843 36.4529 33.4583 36.5989C33.5322 36.7449 33.6794 36.9569 33.7197 37.0299C33.7599 37.1029 33.9845 37.1076 33.9723 37.221C33.9726 37.2767 33.9901 37.331 34.0225 37.3762C34.0549 37.4213 34.1005 37.4551 34.1528 37.4727C34.2123 37.4722 34.6738 37.3814 34.7188 37.2477C34.7638 37.114 35.0138 37.0051 34.9929 36.8786C34.972 36.7521 35.194 36.4701 35.1408 36.4239C35.0875 36.3777 35.0938 36.3377 35.1394 36.2706C35.185 36.2035 35.1369 35.984 35.0377 35.9782C34.9386 35.9724 34.8285 36.2134 34.7752 36.1605Z" fill="#D46A15"/>
<path d="M36.0743 37.449C36.0317 37.4134 35.9807 37.3895 35.9262 37.3794C35.8718 37.3694 35.8158 37.3737 35.7634 37.3917C35.5657 37.4402 35.546 37.4537 35.4596 37.3944C35.3733 37.3352 35.2981 37.0559 35.2128 37.1166C35.1275 37.1774 35.1339 37.1573 35.0686 37.2379C35.0033 37.3185 34.8204 37.5468 34.6945 37.4946C34.5685 37.4423 34.5283 37.376 34.4039 37.4971C34.2795 37.6182 34.0349 37.5937 34.1482 37.7061C34.2615 37.8184 34.3463 37.7043 34.4861 37.8298C34.5395 37.8762 34.6078 37.9014 34.6783 37.9008C34.7487 37.9002 34.8165 37.8737 34.8691 37.8264C34.9874 37.7586 35 37.6919 35.1055 37.6776C35.2111 37.6633 35.2646 37.7362 35.3102 37.6758C35.3897 37.6399 35.4741 37.6167 35.5606 37.6069C35.6332 37.6099 35.7059 37.6093 35.7785 37.6049C35.7785 37.6049 36.2003 37.5079 36.0743 37.449Z" fill="#D46A15"/>
<path d="M34.296 35.7581C34.296 35.7581 34.3467 35.5109 34.1944 35.4656C34.0421 35.4203 33.9906 35.5741 33.8845 35.5217C33.7784 35.4693 33.758 35.4028 33.665 35.3503C33.5137 35.2495 33.3365 35.1954 33.1552 35.1948C32.9703 35.1965 32.9882 34.983 32.8044 35.1113C32.6206 35.2396 32.6047 35.6797 32.5594 35.7801C32.514 35.8805 32.389 35.9283 32.5614 36.0068C32.7338 36.0853 32.7766 35.6982 33.0231 35.9427C33.2696 36.1872 33.3365 36.2866 33.3826 36.2662C33.4254 36.2584 33.4661 36.2417 33.5022 36.2173C33.5384 36.1929 33.5692 36.1612 33.5927 36.1243C33.6511 36.0105 33.5915 35.9977 33.7036 35.9767C33.7933 35.9628 33.8845 35.962 33.9744 35.9743C33.9744 35.9743 34.081 36.0866 34.1335 36.0462C34.186 36.0057 34.389 35.8106 34.296 35.7581Z" fill="#D46A15"/>
<path d="M33.258 36.3739C33.258 36.3739 33.2164 36.1476 33.0187 36.1894C32.8209 36.2311 32.8267 36.1377 32.7215 36.192C32.6163 36.2463 32.6076 36.0063 32.4904 36.1941C32.4085 36.299 32.3632 36.4283 32.3616 36.5619C32.3629 36.7085 32.5021 36.774 32.5824 36.8866C32.6626 36.9992 32.7816 37.0115 32.769 37.0783C32.7564 37.1451 32.7701 37.1983 32.843 37.231C32.9072 37.2612 32.9773 37.2766 33.0481 37.2759C33.1189 37.2753 33.1887 37.2587 33.2524 37.2274C33.344 37.1332 33.3052 37.2269 33.4298 37.1258C33.4555 37.1122 33.4782 37.0936 33.4966 37.071C33.5151 37.0485 33.5289 37.0224 33.5373 36.9944C33.5456 36.9664 33.5484 36.937 33.5453 36.9079C33.5423 36.8788 33.5336 36.8506 33.5196 36.825C33.466 36.7388 33.4266 36.7591 33.3393 36.5999C33.3045 36.5276 33.2773 36.4519 33.258 36.3739V36.3739Z" fill="#D46A15"/>
<path d="M34.0081 37.534C34.0081 37.534 33.9323 37.1747 33.7605 37.1695C33.5888 37.1644 33.5677 37.0246 33.4766 37.172C33.3854 37.3195 33.2149 37.4544 33.0693 37.4157C32.9236 37.377 32.918 37.4903 32.8591 37.5442C32.8001 37.5981 32.7212 37.6388 32.7416 37.6986C32.838 37.843 32.9499 37.9761 33.0753 38.0956C33.1754 38.2147 33.2883 38.2871 33.3608 38.2664C33.4332 38.2458 33.5457 38.2648 33.6374 38.184C33.6858 38.1257 33.7535 38.0872 33.828 38.0756C33.9028 38.0581 33.9726 38.0232 34.0318 37.9738C34.0843 37.9333 34.1176 37.973 34.2035 37.9723C34.2893 37.9715 34.4143 37.9171 34.3611 37.8709C34.3078 37.8247 34.123 37.8263 34.0827 37.7533C34.0424 37.6804 34.0096 37.7007 34.0081 37.534Z" fill="#D46A15"/>
<path d="M32.0928 36.0376C32.0928 36.0376 32.2945 35.6891 31.8503 35.493C31.406 35.297 31.2278 35.3052 31.1868 35.1456C31.1457 34.9859 31.0798 34.9998 30.7834 35.0891C30.487 35.1784 30.0779 35.2087 30.1924 35.4677C30.2873 35.656 30.4165 35.8245 30.5733 35.9644C30.6666 36.0635 30.7574 35.8761 30.9695 35.9609C31.1816 36.0456 31.3732 36.0573 31.4271 36.1768C31.481 36.2963 31.633 36.3083 31.693 36.3811C31.7531 36.4539 31.903 36.2259 31.9499 36.3055C31.9969 36.3851 32.0928 36.0376 32.0928 36.0376Z" fill="#D46A15"/>
<path d="M32.4655 37.101C32.4505 37.0292 32.4191 36.962 32.3739 36.9045C32.3287 36.8471 32.2709 36.801 32.205 36.77C31.9929 36.6852 32.1382 36.6839 31.8989 36.5127C31.6597 36.3415 31.5889 36.5488 31.4301 36.5168C31.2713 36.4849 31.2493 36.2318 31.0378 36.2136C30.8263 36.1955 30.7137 36.1565 30.6817 36.2768C30.6644 36.3556 30.6653 36.4374 30.6843 36.5159C30.7033 36.5943 30.74 36.6673 30.7914 36.7292C30.8856 36.8482 31.0064 36.9431 31.1439 37.0061C31.3198 37.1096 31.5128 37.1801 31.7136 37.2144C31.7136 37.2144 31.9108 37.1059 31.925 37.2125C31.9391 37.319 32.0247 37.2849 32.1045 37.3509C32.1843 37.4169 32.304 37.5025 32.304 37.5025L32.4655 37.101Z" fill="#D46A15"/>
<path d="M32.7382 38.0586C32.7382 38.0586 32.6624 37.706 32.5038 37.7007C32.3453 37.6955 32.2819 37.996 32.1085 37.8042C31.9351 37.6124 32.2064 37.67 31.9417 37.6124C31.6605 37.5634 31.3822 37.4991 31.1079 37.4197C31.0018 37.3674 30.5689 37.7112 30.2772 37.5738C30.1326 37.5084 29.9844 37.4519 29.8332 37.4044C29.5589 37.2859 29.2966 37.1408 29.0501 36.9713C28.7713 36.8138 28.6881 37.1145 28.8347 37.2599C28.9813 37.4053 28.9958 37.5518 29.2086 37.7166C29.4213 37.8814 29.5546 38.0135 29.8314 37.9444C30.1081 37.8753 30.2598 37.8473 30.4389 37.939C30.618 38.0308 30.6126 38.1642 30.7441 38.0963C30.8755 38.0285 31.1719 37.9392 31.1785 37.9325C31.2143 37.8926 31.2625 37.866 31.3151 37.8571C31.3677 37.8482 31.4218 37.8574 31.4686 37.8832C31.6213 37.9752 31.6489 38.1083 31.8016 38.2003C31.9543 38.2923 31.9271 38.1992 32.086 38.2444C32.2449 38.2897 32.3773 38.3285 32.4492 38.2412C32.5211 38.1539 32.7923 38.2115 32.7382 38.0586Z" fill="#D46A15"/>
<path d="M30.8027 37.2691C30.8245 37.2514 30.8421 37.229 30.8541 37.2035C30.8661 37.178 30.8722 37.1501 30.8719 37.1218C30.8717 37.0936 30.8651 37.0658 30.8526 37.0405C30.8402 37.0152 30.8222 36.993 30.8001 36.9758C30.7379 36.9186 30.6586 36.8841 30.5747 36.8778C30.3172 36.88 30.1917 36.8812 29.9787 36.6964C29.7658 36.5116 29.7516 36.405 29.5744 36.5266C29.3972 36.6482 29.2859 36.7625 29.346 36.8353C29.4061 36.9081 29.5511 36.8802 29.7306 37.0186C29.8886 37.109 30.0581 37.177 30.2343 37.2208C30.3736 37.2862 30.3293 37.5 30.5136 37.4383C30.618 37.3971 30.7154 37.34 30.8027 37.2691V37.2691Z" fill="#D46A15"/>
<path d="M30.3041 36.1535C30.1963 35.9916 30.0757 35.8388 29.9434 35.6966C29.7634 35.5049 29.698 35.5722 29.5319 35.467C29.3659 35.3618 29.4378 35.2811 29.2388 35.1829C29.0399 35.0846 29.0251 34.9048 28.8346 35.0265C28.6442 35.1481 28.499 35.1628 28.4804 35.2963C28.4618 35.4298 28.481 35.3696 28.4831 35.6029C28.5142 35.7726 28.5936 35.9295 28.7117 36.0542C28.8319 36.2065 29.0629 36.1978 29.084 36.3376C29.105 36.4774 29.3044 36.6157 29.4092 36.5214C29.514 36.4272 29.5574 36.1001 29.7628 36.1783C29.8907 36.2325 30.0028 36.3187 30.0886 36.4287C30.1551 36.4815 30.223 36.6942 30.3479 36.6264C30.4728 36.5587 30.3443 36.2131 30.3041 36.1535Z" fill="#D46A15"/>
<path d="M28.7159 36.5209C28.7159 36.5209 28.8184 36.1666 28.5073 36.0894C28.1963 36.0121 28.2349 35.9051 28.108 35.7462C27.9812 35.5874 28.0059 35.4005 27.8273 35.3621C27.6432 35.3534 27.4589 35.3708 27.2796 35.4136C27.2202 35.4141 27.1405 35.3682 27.135 35.4882C27.1297 35.6015 27.1608 35.7134 27.2236 35.8074C27.3041 35.9467 27.3019 35.7001 27.4697 35.9986C27.5623 36.1491 27.6432 36.3066 27.7116 36.4698C27.779 36.6225 27.6797 36.5901 28.0308 36.7203C28.24 36.7811 28.427 36.9022 28.5689 37.0689C28.5689 37.0689 28.4475 36.79 28.5654 36.6756C28.6832 36.5612 28.7166 36.6075 28.7159 36.5209Z" fill="#D46A15"/>
<path d="M27.145 35.1348C27.145 35.1348 27.4672 34.9786 27.0832 34.8687C26.6992 34.7587 26.687 34.8722 26.5874 34.813C26.4878 34.7539 26.5457 34.5734 26.4883 34.8139C26.4641 34.8913 26.4641 34.9744 26.4884 35.0517C26.5128 35.1291 26.5602 35.197 26.6243 35.2461C26.7172 35.2986 26.7754 35.1647 26.869 35.2839C26.9625 35.4031 26.8695 35.3439 26.9625 35.4031C27.0554 35.4623 27.145 35.1348 27.145 35.1348Z" fill="#D46A15"/>
<path d="M41.8104 28.1978C41.4849 28.3062 41.1899 28.4917 40.9501 28.7388C40.7284 29.0607 41.0939 29.3175 40.6913 29.3477C40.2887 29.378 39.9208 28.8479 39.9319 29.3545C39.9138 29.7347 40.0294 30.1091 40.2583 30.4116C40.4179 30.5435 40.4731 30.8031 40.8859 30.4394C41.2987 30.0757 41.3991 30.2215 41.4228 29.9213C41.4466 29.621 41.6923 29.7722 41.5582 29.5467C41.4241 29.3212 41.4361 29.1811 41.5537 29.0401C41.6713 28.899 42.1411 28.2482 41.8104 28.1978Z" fill="#D46A15"/>
<path d="M40.4197 28.4968C40.3271 28.4372 40.218 28.4094 40.1086 28.4176C39.9992 28.4258 39.8953 28.4695 39.8125 28.5422C39.5507 28.8045 39.7431 28.9095 39.3467 28.8863C38.9502 28.8632 38.9032 28.7703 38.7861 28.9713C38.7017 29.1331 38.6754 29.3194 38.7115 29.4987C38.7127 29.632 39.0092 29.5627 39.0639 29.7689C39.0856 29.9186 39.1223 30.0657 39.1735 30.2079C39.2271 30.3008 39.6493 30.2437 39.6398 29.9238L39.6339 29.2571C39.6339 29.2571 39.9179 29.2546 39.9887 29.0473C40.0117 28.966 40.0596 28.8941 40.1256 28.842C40.1916 28.7899 40.2722 28.7603 40.3559 28.7574C40.5671 28.7355 40.4197 28.4968 40.4197 28.4968Z" fill="#D46A15"/>
<path d="M40.2299 30.9319C40.2299 30.9319 40.3337 29.9776 39.9797 30.2674C39.6256 30.5573 39.6736 30.7568 39.4748 30.6786C39.276 30.6004 39.3016 30.5068 39.1157 30.4018C38.9299 30.2967 39.2224 29.7741 38.8216 30.0044C38.4208 30.2346 38.5905 30.0064 38.4416 30.3411C38.2927 30.6757 38.5135 31.0071 38.4483 31.101C38.3984 31.2631 38.3732 31.432 38.3735 31.6017C38.4563 31.7483 38.5649 31.8784 38.6939 31.9856C38.7798 31.9848 38.8584 31.9108 39.0769 31.9822C39.2308 32.0461 39.3759 32.13 39.5084 32.2317C39.5084 32.2317 39.7847 32.1159 39.8495 31.9687C39.9142 31.8214 40.0459 31.7736 40.1171 31.6129C40.1883 31.4523 40.2572 31.7717 40.5004 31.6429C40.7436 31.514 40.7437 31.5207 40.7152 31.2943C40.6868 31.0679 40.2299 30.9319 40.2299 30.9319Z" fill="#D46A15"/>
<path d="M39.2477 32.614L38.8292 32.3444C38.8292 32.3444 38.2453 32.7763 38.0185 32.5249C37.7918 32.2736 37.8159 32.0134 37.6262 32.2217C37.5019 32.3496 37.4202 32.5135 37.3926 32.6905C37.3935 32.7905 37.6974 32.8011 37.7118 32.9343C37.7262 33.0675 38.0313 33.2182 38.0313 33.2182C38.2279 33.151 38.4156 33.0598 38.5902 32.9465C38.7146 32.8254 38.7571 33.1451 38.9468 32.9434C39.1365 32.7417 39.4072 32.726 39.2477 32.614Z" fill="#D46A15"/>
<path d="M38.3121 32.1156C38.2241 31.9347 38.1538 31.7455 38.1023 31.5508C38.0372 31.3294 38.0563 31.0915 38.1558 30.8836C38.1558 30.8836 38.1525 30.5103 38.039 30.3713C37.9255 30.2323 37.689 30.3744 37.689 30.3744L37.3692 30.8039L37.5185 31.256C37.4505 31.3308 37.3893 31.4116 37.3358 31.4976C37.3035 31.5779 37.7685 31.8871 37.8279 31.8799C37.8872 31.8727 37.9607 31.9587 37.988 32.0652C38.0154 32.1716 38.3121 32.1156 38.3121 32.1156Z" fill="#D46A15"/>
<path d="M37.4765 33.2164C37.4558 33.1261 37.4048 33.0458 37.332 32.9893C37.2592 32.9328 37.1693 32.9036 37.0775 32.9066C36.7143 32.9098 36.7929 32.8358 36.8505 32.6219C36.908 32.4081 37.0096 32.7005 36.8481 32.3619C36.6867 32.0234 36.5019 32.0383 36.4492 32.0521C36.3965 32.0659 35.9737 32.0563 36.0017 32.2294C36.0248 32.3895 36.0058 32.553 35.9464 32.7033C35.8947 32.8237 35.7232 32.8519 35.7115 33.0254C35.6999 33.1988 35.3498 33.1886 35.457 33.361C35.5642 33.5334 35.7189 33.852 35.7189 33.852C35.7189 33.852 36.073 34.3156 36.1179 34.1618C36.2286 33.9733 36.3624 33.7996 36.5161 33.6449L36.7721 33.4693C36.84 33.4832 36.904 33.5124 36.9592 33.5546C37.0144 33.5968 37.0596 33.651 37.0913 33.7132C37.4214 33.7036 37.4765 33.2164 37.4765 33.2164Z" fill="#D46A15"/>
<path d="M35.6986 32.3054C35.6986 32.3054 36.0982 31.9485 36.1032 31.7685C36.1083 31.5884 36.2789 31.4669 36.4522 31.6454C36.6255 31.8239 36.6217 32.1506 36.8837 31.9016C36.9631 31.825 37.0192 31.727 37.0452 31.6193C37.0711 31.5115 37.0659 31.3985 37.0302 31.2936C37.0293 31.1936 37.1552 31.2391 36.8108 31.1289C36.4664 31.0186 36.3461 30.853 36.1494 31.0147C35.9655 31.207 35.8056 31.4211 35.673 31.6523C35.5555 31.8067 35.3787 31.9883 35.3787 31.9883L35.196 32.2299C35.196 32.2299 35.5939 32.413 35.6986 32.3054Z" fill="#D46A15"/>
<path d="M35.4413 33.8344C35.4402 33.7144 35.2139 33.5164 35.2706 33.2093C35.3274 32.9021 35.5726 33.0066 35.3274 32.9021C35.0821 32.7976 34.767 33.0137 34.6149 32.9951C34.4629 32.9764 34.4961 32.9961 34.2729 33.1514C34.0498 33.3068 33.8522 33.3752 33.8401 33.4953C33.8277 33.6551 33.8291 33.8157 33.8444 33.9753C33.8451 34.0619 34.1283 33.9728 34.3209 34.0911C34.5134 34.2093 34.6999 34.381 34.6341 34.4149C34.5684 34.4489 34.7279 34.5608 34.8403 34.5731C34.9526 34.5855 35.0076 34.825 35.177 34.5701C35.304 34.341 35.3932 34.0925 35.4413 33.8344V33.8344Z" fill="#D46A15"/>
<path d="M34.1255 34.3929C34.1255 34.3929 34.299 33.8446 33.8775 33.975C33.456 34.1054 33.7144 34.2032 33.3568 34.0997C32.9993 33.9962 33.2083 33.7343 32.9379 33.7767C32.7323 33.8231 32.5407 33.9185 32.379 34.055L32.5434 34.7202L33.118 34.7151C33.2803 34.7173 33.4419 34.736 33.6005 34.7709C33.8189 34.8156 33.7738 34.9427 33.9064 35.0015C34.039 35.0603 34.1013 35.3864 34.4102 35.2237C34.7192 35.0609 34.7923 35.1136 34.7907 34.9336C34.7891 34.7536 34.1255 34.3929 34.1255 34.3929Z" fill="#D46A15"/>
<path d="M34.6973 32.5944C34.6973 32.5944 34.6483 32.2881 34.4047 32.3703C34.1611 32.4524 34.2144 32.512 34.0165 32.5271C33.8185 32.5422 33.9229 32.4012 33.6126 32.4173C33.3024 32.4334 32.825 32.2243 32.4796 32.7407C32.1342 33.2571 32.2272 33.3163 31.9977 33.505C31.7682 33.6937 32.3031 33.6823 32.592 33.4997C32.881 33.3172 32.973 33.2697 33.126 33.395C33.279 33.5203 33.4747 33.9919 33.5116 33.6783C33.5484 33.3646 33.3834 33.3794 33.5536 33.2112C33.7239 33.043 33.9225 33.1013 34.0077 33.0272C34.0929 32.9531 34.2169 32.792 34.3622 32.784C34.49 32.7557 34.6067 32.6897 34.6973 32.5944V32.5944Z" fill="#D46A15"/>
<path d="M32.4139 35.0014C32.4131 34.9214 32.4093 34.488 32.0198 34.5048C31.6303 34.5216 31.3569 34.224 31.5201 34.0026C31.6832 33.7811 31.7619 33.7138 31.6548 33.5614C31.5478 33.409 31.6515 33.188 31.3617 33.2706C31.1072 33.3538 30.8802 33.5057 30.7052 33.7098C30.5086 33.8849 29.749 33.8649 29.897 34.177C30.0451 34.489 30.0268 34.6625 30.4359 34.6189C30.8449 34.5752 30.8236 34.4088 31.0098 34.5471C31.1959 34.6855 31.3881 34.7638 31.4819 34.9096C31.5756 35.0555 31.6886 35.1345 31.8065 35.0267C31.9244 34.919 32.009 34.7783 32.076 34.8777C32.1429 34.9771 32.4149 35.1147 32.4139 35.0014Z" fill="#D46A15"/>
<path d="M29.8219 34.651C29.7489 34.6116 29.8695 34.0572 29.4804 34.114C29.0912 34.1708 28.9455 34.1187 28.8977 33.9458C28.85 33.7729 29.0012 33.6982 28.7433 33.6605C28.4854 33.6228 28.1213 33.526 27.9386 33.7743C27.7559 34.0226 27.7425 34.0027 27.6056 34.2039C27.5699 34.2413 27.543 34.2865 27.5273 34.336C27.5115 34.3855 27.5072 34.438 27.5147 34.4894C27.5221 34.5409 27.5412 34.5899 27.5704 34.6328C27.5996 34.6756 27.6381 34.7111 27.683 34.7366C27.8892 34.9015 27.7968 34.9089 28.1137 34.8995C28.4306 34.89 28.5343 34.6624 28.7713 34.587C29.0084 34.5115 29.0878 34.5241 29.2147 34.683C29.3415 34.8419 29.4033 35.108 29.5088 35.0804C29.6142 35.0528 29.6118 34.7862 29.7773 34.8314C29.9428 34.8766 29.8219 34.651 29.8219 34.651Z" fill="#D46A15"/>
<path d="M27.3009 34.0933C27.3009 34.0933 27.6865 33.6432 27.3557 33.5728C27.1311 33.5477 26.9095 33.5005 26.694 33.432C26.482 33.3539 26.5727 33.1597 26.3209 33.0553C26.069 32.9509 25.8957 32.7791 25.8314 32.973C25.7671 33.1669 26.1218 33.6971 26.1752 33.7633C26.2961 33.8671 26.4226 33.9639 26.5542 34.0533C26.6492 34.1123 26.7364 34.1832 26.8137 34.2643C26.96 34.383 27.3009 34.0933 27.3009 34.0933Z" fill="#D46A15"/>
<path d="M42.2151 27.6608C42.2585 27.6032 42.2817 27.5326 42.281 27.4602C42.2804 27.3878 42.2559 27.3177 42.2115 27.2608C42.0515 27.0889 42.05 26.9156 41.8144 27.1577C41.5788 27.3998 41.6208 27.6728 41.4162 27.6879C41.2116 27.7031 41.0324 27.598 40.921 27.6923C40.8095 27.7866 40.5192 27.8159 40.6925 27.9943C40.8654 28.1256 41.0792 28.1899 41.2951 28.1757C41.4444 28.1089 41.5855 28.0249 41.7155 27.9253C41.7269 27.9418 41.7414 27.9559 41.7583 27.9668C41.7751 27.9777 41.7939 27.9851 41.8135 27.9886C41.8332 27.9922 41.8533 27.9918 41.8728 27.9874C41.8923 27.9831 41.9108 27.9749 41.9272 27.9634C42.041 27.8815 42.1386 27.7789 42.2151 27.6608Z" fill="#D46A15"/>
<g style="mix-blend-mode:multiply">
<path d="M23.7484 32.6715C24.2807 33.6838 24.9202 34.6349 25.6557 35.508C27.4415 37.3825 29.8615 38.5085 32.433 38.6614C33.3207 38.6645 34.2059 38.5672 35.0721 38.3713C35.1165 38.1642 35.1541 37.9439 35.1916 37.7035C35.2291 37.4632 35.2476 37.3164 35.2656 37.1095L35.2642 36.9562C35.2629 36.8029 35.2615 36.6429 35.3063 36.4825C35.3195 36.2586 35.3462 36.0357 35.3862 35.8151C35.4238 35.5881 35.4746 35.3609 35.5322 35.1471C35.6314 34.7793 35.7517 34.4176 35.8924 34.0638C36.1395 33.4347 36.4344 32.8259 36.7744 32.2426C36.9824 31.8741 37.2104 31.5187 37.4251 31.1568L37.9795 30.3719C38.2014 30.0699 38.4299 29.7745 38.632 29.4794L39.1416 28.8615C40.3136 27.4804 41.5798 26.1838 42.931 24.9811C41.8947 25.0502 40.6061 25.7017 39.4504 27.1853C36.7406 30.6695 33.751 31.6361 28.7198 31.7607C25.0753 31.8664 22.5815 30.6618 23.7484 32.6715Z" fill="#CCCCCC"/>
</g>
</g>
<defs>
<clipPath id="clip0_36:1840">
<rect width="70" height="38" fill="white" transform="translate(0 0.62085) rotate(-0.508161)"/>
</clipPath>
</defs>
</svg>
