<svg width="44" height="40" viewBox="0 0 44 40" fill="none" xmlns="http://www.w3.org/2000/svg">
<g clip-path="url(#clip0_36:2094)">
<path d="M43.7989 25.375C43.1704 27.0313 40.7441 28.3125 39.2732 29.6063C38.4568 30.3339 37.5939 31.0083 36.6898 31.625C35.9578 32.1272 35.1981 32.5883 34.4144 33.0063C31.9568 34.3246 29.2605 35.1446 26.4818 35.4188C24.6595 35.5984 22.8215 35.5438 21.0132 35.2563L20.4475 35.1625C19.2394 34.947 18.0546 34.6184 16.9087 34.1813C14.788 33.3687 12.8424 32.1617 11.1761 30.625C9.13952 28.75 8.10237 27.075 7.40466 26.9625C6.70695 26.85 6.14752 27.5875 5.4058 28.3375C4.99848 28.8118 4.48651 29.1861 3.9098 29.4313C3.59629 29.545 3.25879 29.5772 2.92923 29.525C1.17552 29.25 1.24466 27.8375 1.51495 26.1688C1.57152 25.8125 1.63438 25.4375 1.69095 25.0688C2.03038 22.95 -0.54677 18.9375 0.125802 18.1563C0.396087 17.8438 1.04352 18.375 1.94237 19.0875L2.08066 19.2L2.13723 19.2438C3.05331 20.0423 4.10182 20.6767 5.23609 21.1188C5.86065 21.338 6.53004 21.4003 7.18466 21.3C10.5412 20.7375 12.5589 12.3875 9.9818 9.15627C7.40466 5.92502 1.25723 5.57502 3.96009 3.01252C4.8479 2.27351 5.873 1.71502 6.97723 1.36877C8.10048 0.972805 9.25469 0.669693 10.4281 0.462517C14.0496 -0.160081 17.7522 -0.153737 21.3715 0.481267C22.1007 0.606267 22.8361 0.750017 23.5778 0.931267C26.049 1.51615 28.4494 2.36482 30.7372 3.46252C32.7187 4.38807 34.5802 5.54859 36.2812 6.91877C37.0512 7.54888 37.7758 8.2318 38.4498 8.96252C41.6147 12.4374 43.2668 17.0172 43.0447 21.7V22.0438C43.0321 22.725 44.1949 24.3 43.7989 25.375Z" fill="#EEF9FF"/>
<path d="M38.4498 19.9625C38.4498 20.1857 38.5163 20.4039 38.6407 20.5897C38.7652 20.7754 38.9422 20.9204 39.1493 21.0064C39.3565 21.0924 39.5846 21.1155 39.8049 21.0728C40.0253 21.0302 40.228 20.9237 40.3876 20.7667C40.5472 20.6098 40.6565 20.4094 40.7018 20.1908C40.7472 19.9721 40.7264 19.7451 40.6422 19.5382C40.558 19.3313 40.4142 19.1537 40.2287 19.0279C40.0433 18.9022 39.8246 18.8337 39.6001 18.8312C39.4497 18.8296 39.3004 18.8576 39.1609 18.9137C39.0214 18.9699 38.8945 19.0529 38.7875 19.1581C38.6805 19.2633 38.5956 19.3886 38.5376 19.5267C38.4797 19.6647 38.4498 19.8129 38.4498 19.9625V19.9625Z" fill="#EDFCE8"/>
<path d="M39.0281 19.9625C39.0281 20.0725 39.0609 20.1801 39.1224 20.2715C39.1838 20.363 39.2712 20.4343 39.3734 20.4764C39.4756 20.5185 39.5881 20.5295 39.6966 20.5081C39.8052 20.4866 39.9048 20.4336 39.9831 20.3558C40.0613 20.278 40.1146 20.1789 40.1362 20.071C40.1578 19.9631 40.1467 19.8513 40.1043 19.7496C40.062 19.648 39.9903 19.5611 39.8983 19.5C39.8063 19.4389 39.6981 19.4062 39.5875 19.4062C39.4391 19.4062 39.2968 19.4649 39.1919 19.5692C39.087 19.6735 39.0281 19.815 39.0281 19.9625V19.9625Z" fill="#241D63"/>
<g style="mix-blend-mode:multiply">
<path d="M43.799 25.375C43.1705 27.0313 40.7442 28.3125 39.2733 29.6063C38.4569 30.334 37.594 31.0083 36.6899 31.625C35.9579 32.1272 35.1982 32.5884 34.4145 33.0063C31.9569 34.3246 29.2606 35.1446 26.4819 35.4188C24.6596 35.5984 22.8216 35.5438 21.0133 35.2563L20.4476 35.1625C19.2396 34.947 18.0547 34.6185 16.9088 34.1813C14.7881 33.3687 12.8425 32.1618 11.1762 30.625C9.13962 28.75 8.10248 27.075 7.40476 26.9625C6.70705 26.85 6.14762 27.5875 5.4059 28.3375C4.99858 28.8118 4.48661 29.1861 3.90991 29.4313C3.59639 29.545 3.25889 29.5773 2.92934 29.5251C1.17562 29.2501 1.24476 27.8375 1.51505 26.1688C5.02876 26.9438 7.80076 24.2188 9.5859 25.5438C11.6539 27.0375 23.4145 28.0438 26.683 26.5688C29.9516 25.0938 31.1962 26.7188 36.3693 25.7313C38.9936 25.21 41.3486 23.7847 43.0196 21.7063V22.05C43.0322 22.725 44.195 24.3 43.799 25.375Z" fill="#CCCCCC"/>
</g>
<path d="M33.547 31.2938C33.547 31.2938 33.8739 35.375 31.0327 37.7063C28.1916 40.0375 23.6784 40.3563 22.767 39.6688C22.4841 39.4563 22.6413 39.1125 23.031 38.6625C23.8733 37.6875 25.7716 36.1625 26.4379 34.3375C27.1041 32.5125 29.9327 30.4438 31.831 30.2875C32.1923 30.2029 32.5726 30.2603 32.8924 30.4478C33.2121 30.6353 33.4467 30.9384 33.547 31.2938V31.2938Z" fill="#EEF9FF"/>
<g style="mix-blend-mode:multiply">
<path d="M33.547 31.2938C33.547 31.2938 33.8739 35.375 31.0327 37.7063C28.1916 40.0375 23.6784 40.3563 22.767 39.6688C22.4841 39.4563 22.6413 39.1125 23.031 38.6625C24.3699 38.625 25.319 37.5188 26.0984 36.825C27.0601 35.9688 27.9527 36.7125 30.0647 35.725C31.787 34.9188 31.8624 31.5313 31.831 30.2875C32.1923 30.2029 32.5726 30.2603 32.8924 30.4478C33.2121 30.6353 33.4467 30.9384 33.547 31.2938Z" fill="#CCCCCC"/>
</g>
</g>
<defs>
<clipPath id="clip0_36:2094">
<rect width="44" height="40" fill="white"/>
</clipPath>
</defs>
</svg>
