<svg width="95" height="96" viewBox="0 0 95 96" fill="none" xmlns="http://www.w3.org/2000/svg">
<g opacity="0.07" clip-path="url(#clip0_36:1837)">
<path d="M18.2611 76.8531C20.7238 77.8586 23.4114 78.4389 26.234 78.5747C34.1102 78.9579 42.48 75.7923 48.0787 70.3103C48.5801 69.8192 49.0628 69.3307 49.5245 68.8429C57.7768 60.1243 59.5937 52.146 61.2102 45.0612C62.3387 40.0999 63.318 35.8151 66.3065 31.9246C69.0387 28.3434 72.1041 26.7126 74.5673 25.4009C76.858 24.1814 78.7523 23.2306 79.3397 25.1355C79.3725 25.2381 79.3756 25.2563 79.398 25.3184C81.1204 31.7012 80.8873 38.8714 78.7251 46.0193C77.5644 48.8493 75.5981 51.4274 73.1167 53.3724C69.051 56.5959 61.9673 60.5037 58.8816 64.527C54.7717 69.8853 55.836 72.2212 53.3073 75.433C52.6565 76.2579 51.5074 77.0045 50.3854 77.5981C44.759 80.0302 38.9422 81.2271 33.3762 81.098C27.8102 80.969 22.6411 79.5173 18.2611 76.8531V76.8531Z" fill="#BFC0C0"/>
<path d="M56.9081 71.5345C57.5394 69.3614 58.6368 67.2526 60.1148 65.3723C61.9983 62.9193 65.8676 60.2764 69.281 57.9479C70.9804 56.7871 72.5862 55.6909 73.931 54.6389C74.7021 54.0373 75.4362 53.3821 76.1261 52.6799C71.9295 61.4189 65.084 69.0535 56.7959 74.2386C55.964 74.6672 56.4836 72.7933 56.9081 71.5345Z" fill="#BFC0C0"/>
<path fill-rule="evenodd" clip-rule="evenodd" d="M5.05107 54.3972C5.31121 57.7147 6.04752 60.8709 7.23873 63.7747C16.121 81.1596 35.5208 78.9556 45.7031 70.4492C47.7902 72.6392 50.8952 74.2855 53.0721 72.7232C54.1289 71.9453 53.6486 68.8081 53.396 67.2355C53.1978 65.4073 53.1737 63.5253 53.3239 61.6131C57.1274 55.7063 58.3875 50.1812 59.5587 45.0455C60.7066 40.0123 61.7691 35.3532 65.0569 31.0753C68.1085 27.102 71.5119 25.2881 74.0132 23.9551C76.0065 22.8927 77.4268 22.1358 77.6395 20.8347C77.6073 20.3183 77.3945 19.8699 77.0364 19.5638C74.7228 17.5273 64.0436 17.7815 55.593 24.5957C49.9065 29.124 45.2325 34.9049 42.0849 41.3026C41.604 42.2679 41.1526 43.2322 40.7307 44.1954C33.8226 44.6161 28.5279 46.5996 26.8111 48.0403C24.3276 50.1215 26.9849 51.0043 28.9598 51.6604C29.123 51.7146 29.2814 51.7673 29.432 51.8189C35.3 53.822 34.9853 57.6577 34.0146 60.2697C32.0064 64.0508 29.5003 67.1358 25.6683 68.9504C22.9234 70.251 18.8815 70.2677 18.0074 67.3965C17.4351 65.557 20.3363 62.2174 23.6809 60.9736C26.9036 59.7727 29.0378 56.862 28.7989 56.5183C28.5987 56.2305 27.9664 56.5109 27.2241 56.8402C26.2709 57.263 25.1363 57.7663 24.5026 57.2498C23.7375 56.6557 22.7529 56.3603 21.68 56.4028C20.6071 56.4454 19.497 56.824 18.4977 57.488C17.7172 57.9952 15.3127 60.0676 14.8381 61.6958C15.0649 60.8488 14.9723 60.0183 14.578 59.3781C13.3085 57.2938 11.2571 57.3552 9.72094 57.4012C9.07845 57.4205 8.5261 57.437 8.15877 57.2928C7.56313 57.0588 7.09784 56.1783 6.67383 55.3759C6.21116 54.5003 5.79764 53.7178 5.31756 53.9699C5.23967 54.0133 5.17197 54.078 5.12412 54.1547C5.07626 54.2315 5.05069 54.3164 5.05107 54.3972ZM58.6061 36.3647C59.2787 34.7177 60.1146 32.6708 59.9093 32.2514C59.3669 31.1351 57.0812 33.3097 55.5016 35.3045C53.877 37.3639 52.5937 41.4939 55.009 41.8793C56.6808 42.1457 57.3534 39.958 57.7949 38.522C57.8265 38.4191 57.857 38.3201 57.8865 38.2261C58.0028 37.8419 58.2859 37.1486 58.6061 36.3647Z" fill="white"/>
</g>
<defs>
<clipPath id="clip0_36:1837">
<rect width="82" height="53" fill="white" transform="matrix(-0.68742 0.72626 0.72626 0.68742 56.3685 0)"/>
</clipPath>
</defs>
</svg>
