<svg width="40" height="22" viewBox="0 0 40 22" fill="none" xmlns="http://www.w3.org/2000/svg">
<g clip-path="url(#clip0_36:1967)">
<path d="M19.5112 17.2187C19.3334 17.5267 15.4371 17.2187 11.5704 14.7107L11.0075 14.3294C7.94079 12.1734 10.1186 11.6307 11.8075 11.8507C13.7321 12.4764 15.5318 13.4293 17.126 14.6667C18.6519 15.6641 19.7926 16.7347 19.5112 17.2187Z" fill="#D64336"/>
<g style="mix-blend-mode:multiply">
<path d="M19.5112 17.2187C19.3334 17.5267 15.4371 17.2187 11.5704 14.7107L11.0074 14.3293C11.9508 14.7982 12.9836 15.0641 14.0382 15.1096C15.0927 15.1551 16.145 14.9791 17.126 14.5933C18.6519 15.664 19.7926 16.7347 19.5112 17.2187Z" fill="#E6E6E6"/>
</g>
<path d="M16.0297 5.39733C15.3768 5.27169 14.7439 5.05956 14.1482 4.76667C13.0667 4.25333 12.4593 3.57867 12.8445 3.13867C13.4371 2.464 15.8074 2.40533 17.3926 3.02133L17.8371 3.212C18.9088 3.73831 19.926 4.36707 20.8741 5.08934C21.2889 5.66133 18.1186 5.77867 16.0297 5.39733Z" fill="#D64336"/>
<g style="mix-blend-mode:multiply">
<path d="M16.0297 5.39738C15.3768 5.27174 14.7439 5.05961 14.1482 4.76672C14.3237 4.72711 14.506 4.72711 14.6815 4.76672C15.2923 4.82778 15.9084 4.72361 16.4641 4.46532C17.0199 4.20703 17.4944 3.8043 17.8371 3.30005C18.9088 3.82635 19.926 4.45512 20.8741 5.17738C21.2889 5.66138 18.1186 5.77872 16.0297 5.39738Z" fill="#E6E6E6"/>
</g>
<path d="M34.6519 9.72401H34.563C34.0593 9.60668 31.3778 8.97601 31.0371 8.84401C30.3342 8.67776 29.6457 8.45708 28.9778 8.18402C27.6261 7.62247 26.3144 6.97074 25.0519 6.23335L24.8741 6.10135C23.8519 5.36802 22.0889 3.32935 23.8519 2.88935C26.1883 2.8446 28.4656 3.6186 30.2815 5.07468L30.4148 5.17735C31.9469 6.55508 33.3501 8.067 34.6074 9.69468L34.6519 9.72401Z" fill="#D64336"/>
<g style="mix-blend-mode:multiply">
<path d="M34.6074 9.68003C34.1037 9.5627 31.4222 8.93203 31.0815 8.80003C30.3787 8.63378 29.6901 8.4131 29.0222 8.14004C27.6705 7.57849 26.3589 6.92677 25.0963 6.18937L24.9185 6.05736C26.7838 6.25131 28.6654 5.89408 30.3259 5.0307L30.4593 5.13337C31.9773 6.52235 33.3656 8.04407 34.6074 9.68003V9.68003Z" fill="#E6E6E6"/>
</g>
<path d="M39.8519 19.0667C38.4593 20.9 35.4074 21.6187 31.6889 21.384C31.126 21.384 30.563 21.2814 29.9852 21.1934C27.8111 20.8824 25.676 20.3466 23.6148 19.5947C23.0074 19.3747 22.4148 19.1254 21.8371 18.876C21.2593 18.6267 20.3556 18.1867 19.6297 17.8054C17.398 16.5795 15.2896 15.1454 13.3334 13.5227C12.8148 13.0974 12.3111 12.6574 11.8519 12.2467C10.1185 10.78 8.7704 9.31336 7.80743 8.44803C7.5074 8.16579 7.1908 7.90133 6.85929 7.65602H6.7704C4.85929 6.42402 1.70373 7.65602 0.444471 6.80536C-0.162936 6.40936 -0.044418 5.25069 0.444471 4.04803C1.2741 1.96536 3.20003 -0.263974 4.40003 1.11469C5.24447 2.09736 5.73336 3.76935 8.44447 4.18002H8.54817C8.82966 4.18002 9.21484 4.18002 9.68892 4.18002C11.0222 4.18002 13.0519 4.18002 15.4222 4.29736L17.3037 4.38535C19.7884 4.50626 22.2627 4.78551 24.7111 5.22135C25.4667 5.36802 26.1926 5.52936 26.963 5.72002C28.772 6.15213 30.519 6.80749 32.163 7.67069C33.0222 8.14003 33.8074 8.60936 34.5185 9.13736C34.9334 9.40136 35.3334 9.68002 35.7037 9.94402C37.2995 11.0229 38.664 12.4036 39.7185 14.0067C40.2642 14.7339 40.5699 15.6102 40.5938 16.5158C40.6176 17.4214 40.3585 18.3123 39.8519 19.0667V19.0667Z" fill="#D64336"/>
<path d="M37.5852 14.6667C37.5217 14.8727 37.3977 15.0554 37.229 15.1915C37.0602 15.3275 36.8544 15.4108 36.6377 15.4307C36.4211 15.4506 36.2033 15.4061 36.0122 15.3031C35.8211 15.2 35.6653 15.043 35.5646 14.852C35.464 14.661 35.423 14.4447 35.447 14.2306C35.4709 14.0164 35.5587 13.8142 35.6991 13.6496C35.8395 13.485 36.0263 13.3656 36.2355 13.3064C36.4447 13.2472 36.667 13.251 36.8741 13.3174C37.0107 13.3591 37.1376 13.4272 37.2474 13.5178C37.3572 13.6084 37.4478 13.7197 37.514 13.8452C37.5801 13.9706 37.6205 14.1078 37.6327 14.2489C37.6449 14.3899 37.6288 14.5319 37.5852 14.6667V14.6667Z" fill="#EDFCE8"/>
<path d="M37.0371 14.5054C37.0169 14.5681 36.9844 14.6263 36.9414 14.6766C36.8984 14.7268 36.8457 14.7681 36.7865 14.7981C36.7273 14.8281 36.6626 14.8462 36.5963 14.8514C36.5299 14.8565 36.4632 14.8486 36.4 14.828C36.2775 14.7846 36.176 14.6971 36.1157 14.583C36.0553 14.4689 36.0404 14.3365 36.0741 14.212C36.0943 14.1493 36.1268 14.0911 36.1698 14.0408C36.2128 13.9906 36.2655 13.9492 36.3247 13.9192C36.3839 13.8892 36.4486 13.8711 36.5149 13.866C36.5812 13.8609 36.6479 13.8688 36.7111 13.8894C36.774 13.9077 36.8325 13.9384 36.8831 13.9795C36.9337 14.0207 36.9755 14.0715 37.0059 14.129C37.0363 14.1865 37.0547 14.2494 37.0601 14.314C37.0654 14.3787 37.0576 14.4438 37.0371 14.5054V14.5054Z" fill="#241D63"/>
<path d="M31.6889 21.3547C31.126 21.3547 30.563 21.252 29.9852 21.164C29.796 19.5209 29.9014 17.8576 30.2963 16.2507C30.9695 13.5103 32.4189 11.017 34.4741 9.06403C34.8889 9.32803 35.2889 9.6067 35.6593 9.8707C34.3704 11.352 30.6519 16.1334 31.6889 21.3547Z" fill="#EDFCE8"/>
<path d="M13.3333 13.5227C12.8148 13.0973 12.3111 12.6573 11.8519 12.2467C11.8519 11.7333 12.0148 11.1467 12.1333 10.516C12.6798 8.20813 13.806 6.07419 15.4074 4.31201V4.31201L17.2889 4.40001C15.0346 6.95371 13.6505 10.1458 13.3333 13.5227Z" fill="#EDFCE8"/>
<path d="M7.7778 8.44802C7.47776 8.16578 7.16116 7.90132 6.82965 7.65602C6.83656 7.56815 6.83656 7.47989 6.82965 7.39202C7.0834 6.20556 7.58832 5.08584 8.31113 4.10669H8.41484C8.69632 4.10669 9.0815 4.10669 9.55558 4.10669C8.6417 5.40354 8.03412 6.88726 7.7778 8.44802V8.44802Z" fill="#EDFCE8"/>
<path d="M21.837 18.8467C21.0667 18.5094 20.3556 18.1574 19.6296 17.776C19.7036 16.4153 19.8819 15.0621 20.163 13.728C20.8948 10.5663 22.4239 7.6397 24.6074 5.22137C25.363 5.36804 26.0889 5.52938 26.8593 5.72005C25.0519 8.02271 21.5259 13.2 21.837 18.8467Z" fill="#EDFCE8"/>
<g style="mix-blend-mode:multiply">
<path d="M39.8519 19.0667C38.4593 20.9 35.4074 21.6187 31.6889 21.384C31.1259 21.384 30.563 21.2814 29.9852 21.1934C27.8111 20.8824 25.676 20.3466 23.6148 19.5947C23.0074 19.3747 22.4148 19.1254 21.8371 18.876C21.2593 18.6267 20.3556 18.1867 19.6297 17.8054C17.398 16.5795 15.2896 15.1454 13.3334 13.5227C12.8148 13.0974 12.3111 12.6574 11.8519 12.2467C10.1185 10.78 8.7704 9.31337 7.80743 8.44803C7.5074 8.1658 7.1908 7.90134 6.85929 7.65603H6.7704C4.85929 6.42403 1.70373 7.65603 0.444471 6.80536C-0.162936 6.40936 -0.044418 5.2507 0.444471 4.04803C1.92595 5.35337 6.45929 5.83737 7.85188 7.12803C9.24447 8.4187 20.2074 15.6787 28.2519 18.1574C30.3526 18.8528 32.63 18.8192 34.7089 18.0621C36.7878 17.305 38.5442 15.8695 39.6889 13.992C40.2423 14.7176 40.5551 15.595 40.5843 16.5037C40.6135 17.4125 40.3576 18.3078 39.8519 19.0667V19.0667Z" fill="#E6E6E6"/>
</g>
<path d="M31.1852 21.164C28.9429 22.4352 26.3108 22.8573 23.7778 22.352C23.3396 22.2405 22.913 22.0883 22.5038 21.8974C21.9408 21.6187 21.6593 21.3107 21.6149 21.0174C21.564 20.865 21.564 20.7004 21.6149 20.548C22.2734 19.7479 23.188 19.1943 24.2075 18.9787C25.1823 18.7556 26.1956 18.7556 27.1704 18.9787C27.781 19.0747 28.3811 19.2269 28.963 19.4334C29.2367 19.5231 29.5039 19.6309 29.763 19.756C30.8445 20.1667 31.4667 20.724 31.1852 21.164Z" fill="#D64336"/>
<g style="mix-blend-mode:multiply">
<path d="M31.1852 21.164C28.9429 22.4352 26.3108 22.8573 23.7778 22.352C21.8667 21.8387 21.3778 21.1787 21.6741 20.548C22.9764 21.2028 24.4418 21.4722 25.8947 21.3239C27.3477 21.1757 28.7267 20.616 29.8667 19.712C30.8445 20.1667 31.4667 20.724 31.1852 21.164Z" fill="#E6E6E6"/>
</g>
</g>
<defs>
<clipPath id="clip0_36:1967">
<rect width="40" height="22" fill="white"/>
</clipPath>
</defs>
</svg>
